<svg width="1920" height="572" viewBox="0 0 1920 572" fill="none" xmlns="http://www.w3.org/2000/svg">
<mask id="mask0_72_197" style="mask-type:alpha" maskUnits="userSpaceOnUse" x="0" y="0" width="1920" height="572">
<rect width="1920" height="572" fill="#EFEFEF"/>
</mask>
<g mask="url(#mask0_72_197)">
<path d="M1726.67 -78L1743.64 -65.2721L737.66 689.211L720.689 676.483L1726.67 -78Z" fill="#EFEFEF"/>
<path d="M582.667 -78L599.637 -65.2721L-406.34 689.211L-423.311 676.483L582.667 -78Z" fill="#EFEFEF"/>
<path d="M1830.67 -78L1847.64 -65.2721L841.66 689.211L824.689 676.483L1830.67 -78Z" fill="#EFEFEF"/>
<path d="M686.667 -78L703.637 -65.2721L-302.34 689.211L-319.311 676.483L686.667 -78Z" fill="#EFEFEF"/>
<path d="M1934.67 -78L1951.64 -65.2721L945.66 689.211L928.689 676.483L1934.67 -78Z" fill="#EFEFEF"/>
<path d="M790.667 -78L807.637 -65.2721L-198.34 689.211L-215.311 676.483L790.667 -78Z" fill="#EFEFEF"/>
<path d="M2038.67 -78L2055.64 -65.2721L1049.66 689.211L1032.69 676.483L2038.67 -78Z" fill="#EFEFEF"/>
<path d="M894.667 -78L911.637 -65.2721L-94.3401 689.211L-111.311 676.483L894.667 -78Z" fill="#EFEFEF"/>
<path d="M2142.67 -78L2159.64 -65.2721L1153.66 689.211L1136.69 676.483L2142.67 -78Z" fill="#EFEFEF"/>
<path d="M998.667 -78L1015.64 -65.2721L9.65994 689.211L-7.3106 676.483L998.667 -78Z" fill="#EFEFEF"/>
<path d="M2246.67 -78L2263.64 -65.2721L1257.66 689.211L1240.69 676.483L2246.67 -78Z" fill="#EFEFEF"/>
<path d="M1102.67 -78L1119.64 -65.2721L113.66 689.211L96.6894 676.483L1102.67 -78Z" fill="#EFEFEF"/>
<path d="M2350.67 -78L2367.64 -65.2721L1361.66 689.211L1344.69 676.483L2350.67 -78Z" fill="#EFEFEF"/>
<path d="M1206.67 -78L1223.64 -65.2721L217.66 689.211L200.689 676.483L1206.67 -78Z" fill="#EFEFEF"/>
<path d="M2454.67 -78L2471.64 -65.2721L1465.66 689.211L1448.69 676.483L2454.67 -78Z" fill="#EFEFEF"/>
<path d="M1310.67 -78L1327.64 -65.2721L321.66 689.211L304.689 676.483L1310.67 -78Z" fill="#EFEFEF"/>
<path d="M2558.67 -78L2575.64 -65.2721L1569.66 689.211L1552.69 676.483L2558.67 -78Z" fill="#EFEFEF"/>
<path d="M1414.67 -78L1431.64 -65.2721L425.66 689.211L408.689 676.483L1414.67 -78Z" fill="#EFEFEF"/>
<path d="M2662.67 -78L2679.64 -65.2721L1673.66 689.211L1656.69 676.483L2662.67 -78Z" fill="#EFEFEF"/>
<path d="M1518.67 -78L1535.64 -65.2721L529.66 689.211L512.689 676.483L1518.67 -78Z" fill="#EFEFEF"/>
<path d="M62.6666 -78L79.6371 -65.2721L-926.34 689.211L-943.311 676.483L62.6666 -78Z" fill="#EFEFEF"/>
<path d="M166.667 -78L183.637 -65.2721L-822.34 689.211L-839.311 676.483L166.667 -78Z" fill="#EFEFEF"/>
<path d="M270.667 -78L287.637 -65.2721L-718.34 689.211L-735.311 676.483L270.667 -78Z" fill="#EFEFEF"/>
<path d="M374.667 -78L391.637 -65.2721L-614.34 689.211L-631.311 676.483L374.667 -78Z" fill="#EFEFEF"/>
<path d="M478.667 -78L495.637 -65.2721L-510.34 689.211L-527.311 676.483L478.667 -78Z" fill="#EFEFEF"/>
<path d="M2766.67 -78L2783.64 -65.2721L1777.66 689.211L1760.69 676.483L2766.67 -78Z" fill="#EFEFEF"/>
<path d="M1622.67 -78L1639.64 -65.2721L633.66 689.211L616.689 676.483L1622.67 -78Z" fill="#EFEFEF"/>
</g>
</svg>
