<svg width="360" height="487" viewBox="0 0 360 487" fill="none" xmlns="http://www.w3.org/2000/svg">
<mask id="mask0_144_466" style="mask-type:alpha" maskUnits="userSpaceOnUse" x="0" y="0" width="360" height="487">
<rect width="360" height="487" fill="#E9E9E9"/>
</mask>
<g mask="url(#mask0_144_466)">
<path d="M1102.56 -66.4091L1113.4 -55.5725L471.032 586.793L460.196 575.957L1102.56 -66.4091Z" fill="#EFEFEF"/>
<path d="M372.061 -66.4091L382.898 -55.5725L-259.468 586.793L-270.304 575.957L372.061 -66.4091Z" fill="#EFEFEF"/>
<path d="M1168.97 -66.4091L1179.81 -55.5725L537.441 586.793L526.605 575.957L1168.97 -66.4091Z" fill="#EFEFEF"/>
<path d="M438.47 -66.4091L449.307 -55.5725L-193.059 586.793L-203.895 575.957L438.47 -66.4091Z" fill="#EFEFEF"/>
<path d="M1235.38 -66.4091L1246.22 -55.5725L603.85 586.793L593.014 575.957L1235.38 -66.4091Z" fill="#EFEFEF"/>
<path d="M504.88 -66.4091L515.716 -55.5725L-126.65 586.793L-137.486 575.957L504.88 -66.4091Z" fill="#EFEFEF"/>
<path d="M1301.79 -66.4091L1312.63 -55.5725L670.259 586.793L659.423 575.957L1301.79 -66.4091Z" fill="#EFEFEF"/>
<path d="M571.289 -66.4091L582.125 -55.5725L-60.2406 586.793L-71.0771 575.957L571.289 -66.4091Z" fill="#EFEFEF"/>
<path d="M1368.2 -66.4091L1379.03 -55.5725L736.668 586.793L725.832 575.957L1368.2 -66.4091Z" fill="#EFEFEF"/>
<path d="M637.698 -66.4091L648.534 -55.5725L6.16846 586.793L-4.66803 575.957L637.698 -66.4091Z" fill="#EFEFEF"/>
<path d="M1434.61 -66.4091L1445.44 -55.5725L803.078 586.793L792.241 575.957L1434.61 -66.4091Z" fill="#EFEFEF"/>
<path d="M704.107 -66.4091L714.943 -55.5725L72.5776 586.793L61.741 575.957L704.107 -66.4091Z" fill="#EFEFEF"/>
<path d="M1501.02 -66.4091L1511.85 -55.5725L869.487 586.793L858.65 575.957L1501.02 -66.4091Z" fill="#EFEFEF"/>
<path d="M770.516 -66.4091L781.352 -55.5725L138.987 586.793L128.15 575.957L770.516 -66.4091Z" fill="#EFEFEF"/>
<path d="M1567.42 -66.4091L1578.26 -55.5725L935.896 586.793L925.059 575.957L1567.42 -66.4091Z" fill="#EFEFEF"/>
<path d="M836.925 -66.4091L847.761 -55.5725L205.396 586.793L194.559 575.957L836.925 -66.4091Z" fill="#EFEFEF"/>
<path d="M1633.83 -66.4091L1644.67 -55.5725L1002.3 586.793L991.468 575.957L1633.83 -66.4091Z" fill="#EFEFEF"/>
<path d="M903.334 -66.4091L914.171 -55.5725L271.805 586.793L260.968 575.957L903.334 -66.4091Z" fill="#EFEFEF"/>
<path d="M1700.24 -66.4091L1711.08 -55.5725L1068.71 586.793L1057.88 575.957L1700.24 -66.4091Z" fill="#EFEFEF"/>
<path d="M969.743 -66.4091L980.58 -55.5725L338.214 586.793L327.377 575.957L969.743 -66.4091Z" fill="#EFEFEF"/>
<path d="M40.0158 -66.4091L50.8524 -55.5725L-591.513 586.793L-602.35 575.957L40.0158 -66.4091Z" fill="#EFEFEF"/>
<path d="M106.425 -66.4091L117.261 -55.5725L-525.104 586.793L-535.941 575.957L106.425 -66.4091Z" fill="#EFEFEF"/>
<path d="M172.834 -66.4091L183.671 -55.5725L-458.695 586.793L-469.532 575.957L172.834 -66.4091Z" fill="#EFEFEF"/>
<path d="M239.243 -66.4091L250.08 -55.5725L-392.286 586.793L-403.123 575.957L239.243 -66.4091Z" fill="#EFEFEF"/>
<path d="M305.652 -66.4091L316.489 -55.5725L-325.877 586.793L-336.714 575.957L305.652 -66.4091Z" fill="#EFEFEF"/>
<path d="M1766.65 -66.4091L1777.49 -55.5725L1135.12 586.793L1124.29 575.957L1766.65 -66.4091Z" fill="#EFEFEF"/>
<path d="M1036.15 -66.4091L1046.99 -55.5725L404.623 586.793L393.786 575.957L1036.15 -66.4091Z" fill="#EFEFEF"/>
</g>
</svg>
