<svg width="33" height="33" viewBox="0 0 33 33" fill="none" xmlns="http://www.w3.org/2000/svg">
<rect x="7" y="8" width="18" height="18" fill="white"/>
<path d="M31.68 0H1.32C0.589875 0 0 0.589875 0 1.32V31.68C0 32.4101 0.589875 33 1.32 33H31.68C32.4101 33 33 32.4101 33 31.68V1.32C33 0.589875 32.4101 0 31.68 0ZM24.42 17.49C24.42 17.6715 24.2715 17.82 24.09 17.82H17.82V24.09C17.82 24.2715 17.6715 24.42 17.49 24.42H15.51C15.3285 24.42 15.18 24.2715 15.18 24.09V17.82H8.91C8.7285 17.82 8.58 17.6715 8.58 17.49V15.51C8.58 15.3285 8.7285 15.18 8.91 15.18H15.18V8.91C15.18 8.7285 15.3285 8.58 15.51 8.58H17.49C17.6715 8.58 17.82 8.7285 17.82 8.91V15.18H24.09C24.2715 15.18 24.42 15.3285 24.42 15.51V17.49Z" fill="#777777"/>
</svg>
