<svg width="25" height="25" viewBox="0 0 25 25" fill="none" xmlns="http://www.w3.org/2000/svg">
<path d="M21.5385 2.5H20.1923V1.25C20.1923 0.5625 19.5865 0 18.8462 0C18.1058 0 17.5 0.5625 17.5 1.25V2.5H6.73077V1.25C6.73077 0.5625 6.125 0 5.38462 0C4.64423 0 4.03846 0.5625 4.03846 1.25V2.5H2.69231C1.19808 2.5 0.0134615 3.625 0.0134615 5L0 22.5C0 23.163 0.283653 23.7989 0.788559 24.2678C1.29346 24.7366 1.97826 25 2.69231 25H21.5385C23.0192 25 24.2308 23.875 24.2308 22.5V5C24.2308 3.625 23.0192 2.5 21.5385 2.5ZM21.5385 21.25C21.5385 21.9375 20.9327 22.5 20.1923 22.5H4.03846C3.29808 22.5 2.69231 21.9375 2.69231 21.25V8.75H21.5385V21.25ZM5.38462 11.25H8.07692V13.75H5.38462V11.25ZM10.7692 11.25H13.4615V13.75H10.7692V11.25ZM16.1538 11.25H18.8462V13.75H16.1538V11.25Z" fill="#999999"/>
</svg>
