<svg width="25" height="25" viewBox="0 0 25 25" fill="none" xmlns="http://www.w3.org/2000/svg">
<path d="M4.33333 13.6667V4.33333C4.33333 3.71449 4.57917 3.121 5.01675 2.68342C5.45434 2.24583 6.04783 2 6.66667 2H20.6667C21.2855 2 21.879 2.24583 22.3166 2.68342C22.7542 3.121 23 3.71449 23 4.33333V19.5C23 20.6667 22.3 23 19.5 23M19.5 23H5.5C4.33333 23 2 22.3 2 19.5V17.1667H16V19.5C16 22.3 18.3333 23 19.5 23ZM9 6.66667H18.3333M9 11.3333H13.6667" stroke="#999999" stroke-width="2.5" stroke-linecap="round" stroke-linejoin="round"/>
</svg>
