<svg width="17" height="10" viewBox="0 0 17 10" fill="none" xmlns="http://www.w3.org/2000/svg">
<path d="M16.3987 0.498725C16.26 0.35967 16.0951 0.249348 15.9137 0.174076C15.7322 0.0988038 15.5377 0.0600585 15.3412 0.0600585C15.1448 0.0600585 14.9503 0.0988038 14.7688 0.174076C14.5873 0.249348 14.4225 0.359669 14.2837 0.498725L8.46373 6.31872L2.64373 0.498724C2.36326 0.218258 1.98287 0.0606931 1.58623 0.0606931C1.18959 0.0606931 0.809193 0.218258 0.528727 0.498724C0.24826 0.779191 0.0906982 1.15958 0.0906982 1.55622C0.0906982 1.95286 0.24826 2.33326 0.528726 2.61372L7.41373 9.49872C7.5525 9.63778 7.71733 9.7481 7.89879 9.82337C8.08025 9.89865 8.27477 9.93739 8.47123 9.93739C8.66768 9.93739 8.8622 9.89865 9.04366 9.82337C9.22512 9.7481 9.38996 9.63778 9.52873 9.49872L16.4137 2.61372C16.9837 2.04372 16.9837 1.08372 16.3987 0.498725Z" fill="#666666"/>
</svg>
