<svg width="98" height="94" viewBox="0 0 98 94" fill="none" xmlns="http://www.w3.org/2000/svg">
<rect x="1.5" y="1.5" width="95" height="91" rx="10.5" fill="white" stroke="#C4C4C4" stroke-width="3"/>
<path d="M32.4941 73.9097H29.3139V71.538H31.3082V25.9906H18.3717V71.538H26.6187V73.9097H17.1858C16.539 73.9097 16 73.3707 16 72.7238V24.8047C16 24.1579 16.539 23.6189 17.1858 23.6189H32.548C33.1948 23.6189 33.7338 24.1579 33.7338 24.8047V72.7238C33.6799 73.3707 33.1948 73.9097 32.4941 73.9097Z" fill="#444444"/>
<path d="M32.0631 30.3567H16.7009V37.7413H32.0631V30.3567Z" fill="#A475FF"/>
<path d="M32.4941 38.8732H17.1858C16.539 38.8732 16 38.3881 16 37.7412V30.3566C16 29.7098 16.539 29.1708 17.1858 29.1708H32.548C33.1948 29.1708 33.7338 29.7098 33.7338 30.3566V37.7412C33.6799 38.3881 33.1948 38.8732 32.4941 38.8732ZM18.3717 36.5554H31.3621V31.5425H18.3717V36.5554Z" fill="#444444"/>
<path d="M30.1224 63.1831H19.6115V65.5548H30.1224V63.1831Z" fill="#444444"/>
<path d="M50.9287 73.9097H35.5666C34.9198 73.9097 34.3807 73.3707 34.3807 72.7238V24.8047C34.3807 24.1579 34.9198 23.6189 35.5666 23.6189H50.9287C51.5756 23.6189 52.1146 24.1579 52.1146 24.8047V72.7238C52.0607 73.3707 51.5756 73.9097 50.9287 73.9097ZM36.7524 71.538H49.7429V25.9906H36.7524V71.538Z" fill="#444444"/>
<path d="M50.9289 30.3566H35.5668V37.7412H50.9289V30.3566Z" fill="#FFA04D"/>
<path d="M52.0607 38.8732H34.3807V29.1708H52.0607V38.8732ZM36.7524 36.5554H49.7429V31.5425H36.7524V36.5554Z" fill="#444444"/>
<path d="M48.503 63.1831H37.9921V65.5548H48.503V63.1831Z" fill="#444444"/>
<path d="M66.2371 72.7238C65.752 72.7238 65.2668 72.4004 65.1051 71.9153L50.3898 26.314C50.282 25.9905 50.3359 25.6671 50.4437 25.3976C50.6054 25.1281 50.821 24.9125 51.1444 24.8047L65.752 20.0613C66.3988 19.8457 67.0456 20.223 67.2612 20.8159L81.9765 66.4172C82.0843 66.7406 82.0304 67.0641 81.9226 67.3336C81.7609 67.6031 81.5453 67.8187 81.2219 67.9265L66.6144 72.6699C66.5066 72.7238 66.3449 72.7238 66.2371 72.7238ZM52.9771 26.6913L66.9917 70.0826L79.3353 66.0938L65.3207 22.7025L52.9771 26.6913Z" fill="#444444"/>
<path d="M55.4567 39.4661C54.9716 39.4661 54.4864 39.1427 54.3247 38.6576L52.0608 31.6503C51.953 31.3269 52.0069 31.0035 52.1147 30.734C52.2764 30.4644 52.4921 30.2488 52.8155 30.141L67.423 25.3976C67.7464 25.2898 68.0698 25.3437 68.3393 25.4515C68.6088 25.6132 68.8244 25.8288 68.9322 26.1523L71.1961 33.1596C71.3039 33.483 71.25 33.8064 71.1422 34.0759C70.9805 34.3454 70.7649 34.561 70.4415 34.6688L55.834 39.4122C55.7262 39.4122 55.6184 39.4661 55.4567 39.4661ZM54.702 32.0276L56.2652 36.8249L68.6088 32.8361L67.0457 28.0388L54.702 32.0276Z" fill="#444444"/>
<path d="M75.5821 58.504L65.5809 61.7361L66.3102 63.9928L76.3114 60.7607L75.5821 58.504Z" fill="#444444"/>
</svg>
