<svg width="29" height="29" viewBox="0 0 29 29" fill="none" xmlns="http://www.w3.org/2000/svg">
<path fill-rule="evenodd" clip-rule="evenodd" d="M14.3999 3.05176e-05C6.45108 3.05176e-05 -0.00012207 6.45123 -0.00012207 14.4C-0.00012207 22.3488 6.45108 28.8 14.3999 28.8C22.3487 28.8 28.7999 22.3488 28.7999 14.4C28.7999 6.45123 22.3487 3.05176e-05 14.3999 3.05176e-05ZM23.5583 21.3552C21.4991 18.8496 16.5023 18 14.3999 18C12.2975 18 7.30068 18.8496 5.24148 21.3552C3.77268 19.4256 2.87988 17.0208 2.87988 14.4C2.87988 8.04963 8.04948 2.88003 14.3999 2.88003C20.7503 2.88003 25.9199 8.04963 25.9199 14.4C25.9199 17.0208 25.0271 19.4256 23.5583 21.3552ZM9.35988 10.8C9.35988 8.00643 11.6063 5.76003 14.3999 5.76003C17.1935 5.76003 19.4399 8.00643 19.4399 10.8C19.4399 13.5936 17.1935 15.84 14.3999 15.84C11.6063 15.84 9.35988 13.5936 9.35988 10.8Z" fill="#999999"/>
</svg>
