<svg width="36" height="36" viewBox="0 0 36 36" fill="none" xmlns="http://www.w3.org/2000/svg">
<path d="M26.3987 13.4987C26.2599 13.3597 26.0951 13.2493 25.9136 13.1741C25.7322 13.0988 25.5377 13.0601 25.3412 13.0601C25.1448 13.0601 24.9502 13.0988 24.7688 13.1741C24.5873 13.2493 24.4225 13.3597 24.2837 13.4987L18.4637 19.3187L12.6437 13.4987C12.3632 13.2183 11.9829 13.0607 11.5862 13.0607C11.1896 13.0607 10.8092 13.2183 10.5287 13.4987C10.2482 13.7792 10.0907 14.1596 10.0907 14.5562C10.0907 14.9529 10.2482 15.3333 10.5287 15.6137L17.4137 22.4987C17.5525 22.6378 17.7173 22.7481 17.8988 22.8234C18.0802 22.8986 18.2748 22.9374 18.4712 22.9374C18.6677 22.9374 18.8622 22.8986 19.0436 22.8234C19.2251 22.7481 19.3899 22.6378 19.5287 22.4987L26.4137 15.6137C26.9837 15.0437 26.9837 14.0837 26.3987 13.4987Z" fill="#999999"/>
</svg>
