<svg width="98" height="94" viewBox="0 0 98 94" fill="none" xmlns="http://www.w3.org/2000/svg">
<rect x="1.5" y="1.5" width="95" height="91" rx="14.5" fill="white" stroke="#C4C4C4" stroke-width="3"/>
<path d="M57.7229 66.4976H55.2374V64.2433H56.5958C56.6825 59.7057 57.9253 55.4282 60.1796 51.8732C61.4802 49.8212 62.1449 47.4512 62.1449 45.0234C62.1449 41.4685 60.642 38.0291 58.0409 35.6014C55.4108 33.1447 51.9425 31.9308 48.3298 32.162C41.9713 32.5956 36.8557 37.7112 36.3933 44.0697C36.2198 46.7287 36.8268 49.3009 38.1563 51.5553C40.5262 55.5438 41.8268 59.908 41.9135 64.2433H49.7171V66.4976H40.8153C40.1794 66.4976 39.6881 65.9774 39.6881 65.3704V64.7924C39.6881 60.7172 38.5031 56.5264 36.2198 52.7114C34.6591 50.0524 33.9366 47.0177 34.1389 43.8963C34.6591 36.4106 40.6997 30.399 48.1853 29.8788C52.4339 29.5898 56.4802 31.006 59.6016 33.9251C62.6652 36.7864 64.4282 40.8037 64.4282 44.9945C64.4282 47.8558 63.619 50.6304 62.116 53.0582C59.9773 56.4397 58.879 60.5149 58.879 64.8213V65.3415C58.8501 65.9774 58.3588 66.4976 57.7229 66.4976Z" fill="#444444"/>
<path d="M42.3182 72.4803C42.8674 75.833 45.7576 78.3763 49.2547 78.3763C52.7519 78.3763 55.671 75.8041 56.1912 72.4803H42.3182Z" fill="#A475FF"/>
<path d="M49.2837 80.6307C44.1681 80.6307 39.9773 76.4688 39.9773 71.3242C39.9773 70.6884 40.4975 70.197 41.1045 70.197H57.4341C58.07 70.197 58.5613 70.7173 58.5613 71.3242C58.5613 76.4688 54.3994 80.6307 49.2837 80.6307ZM42.3184 72.4803C42.8675 75.8329 45.7577 78.3763 49.2548 78.3763C52.752 78.3763 55.6711 75.804 56.1913 72.4803H42.3184Z" fill="#444444"/>
<path d="M50.642 44.9079C50.642 44.0697 50.1218 43.7229 49.2836 43.7229C48.4455 43.7229 47.9253 44.1853 47.9253 45.0235V46.3819H43.3298V44.3009C43.3298 40.9772 45.931 39.7633 49.2547 39.7633C52.5785 39.7633 55.1797 40.9483 55.1797 44.3009V45.5726C55.1797 46.931 54.4571 48.0582 52.4918 49.5611C51.249 50.486 51.2201 51.3241 51.2201 54.5033H47.0871C47.0871 50.8906 46.8559 49.0698 48.9657 47.6825C50.4975 46.6709 50.6131 46.1217 50.6131 45.6015V44.9079H50.642ZM47.0871 56.0062H51.2201V60.1103H47.0871V56.0062Z" fill="#FFA04D"/>
<path d="M50.4107 13H48.1564V22.6822H50.4107V13Z" fill="#444444"/>
<path d="M71.3651 21.6233L64.5188 28.4695L66.1129 30.0636L72.9591 23.2173L71.3651 21.6233Z" fill="#444444"/>
<path d="M81.7116 44.1564H72.0294V46.4107H81.7116V44.1564Z" fill="#444444"/>
<path d="M66.2164 60.5299L64.6223 62.124L71.4686 68.9702L73.0626 67.3762L66.2164 60.5299Z" fill="#444444"/>
<path d="M32.5636 60.6328L25.7173 67.4791L27.3113 69.0731L34.1576 62.2269L32.5636 60.6328Z" fill="#444444"/>
<path d="M26.6822 44.272H17V46.5263H26.6822V44.272Z" fill="#444444"/>
<path d="M27.2078 21.7267L25.6138 23.3207L32.46 30.167L34.0541 28.5729L27.2078 21.7267Z" fill="#444444"/>
</svg>
