<svg width="98" height="94" viewBox="0 0 98 94" fill="none" xmlns="http://www.w3.org/2000/svg">
<rect x="1.5" y="1.5" width="95" height="91" rx="14.5" fill="white" stroke="#C4C4C4" stroke-width="3"/>
<path d="M34.0294 48.7545H27.7124V62.2051H34.0294V48.7545Z" fill="#A475FF"/>
<path d="M35.1103 64.3669H26.6316C26.0312 64.3669 25.5508 63.8865 25.5508 63.286V47.6978C25.5508 47.0973 26.0312 46.6169 26.6316 46.6169H35.0863C35.6867 46.6169 36.1671 47.0973 36.1671 47.6978V63.286C36.1671 63.8865 35.6867 64.3669 35.1103 64.3669ZM27.7125 62.2052H34.0294V48.7546H27.7125V62.2052Z" fill="#444444"/>
<path d="M48.6089 64.3668H46.4472V34.7036H40.1542V64.3668H37.9926V33.6227C37.9926 33.0222 38.4729 32.5419 39.0734 32.5419H47.528C48.1285 32.5419 48.6089 33.0222 48.6089 33.6227V64.3668Z" fill="#444444"/>
<path d="M59.9698 64.3669H51.5152C50.9147 64.3669 50.4343 63.8865 50.4343 63.286V39.4353C50.4343 38.8349 50.9147 38.3545 51.5152 38.3545H59.9698C60.5703 38.3545 61.0507 38.8349 61.0507 39.4353V63.286C61.0507 63.8865 60.5703 64.3669 59.9698 64.3669ZM52.596 62.2052H58.913V40.5162H52.596V62.2052Z" fill="#444444"/>
<path d="M72.4118 26.0809H63.9572V63.2861H72.4118V26.0809Z" fill="#FFA04D"/>
<path d="M73.4927 64.3669H62.8763V25H73.4927V64.3669ZM65.014 62.2052H71.331V27.1617H65.014V62.2052Z" fill="#444444"/>
<path d="M80.7459 62.2051H42.7482V64.3668H80.7459V62.2051Z" fill="#444444"/>
<path d="M40.1542 62.2051H18.4412V64.3668H40.1542V62.2051Z" fill="#444444"/>
<path d="M22.4044 68.45L17.3604 64.1026C17.1202 63.9105 17.0001 63.5982 17.0001 63.286C17.0001 62.9738 17.1442 62.6855 17.3604 62.4694L22.3803 58.1219L23.7975 59.7552L19.7142 63.286L23.7975 66.8168L22.4044 68.45Z" fill="#444444"/>
<path d="M76.2786 68.45L74.8615 66.8168L78.9447 63.286L74.8615 59.7552L76.2786 58.1219L81.2985 62.4694C81.5387 62.6855 81.6588 62.9738 81.6588 63.286C81.6588 63.5982 81.5147 63.8865 81.2985 64.1026L76.2786 68.45Z" fill="#444444"/>
</svg>
