<svg width="24" height="24" viewBox="0 0 24 24" fill="none" xmlns="http://www.w3.org/2000/svg">
<path d="M2.49384 10.3744C2.49384 14.6173 5.9328 18.0546 10.1738 18.0546C11.571 18.0568 12.942 17.676 14.1379 16.9535L17.8615 20.6771L17.8745 20.6641C18.2549 21.0616 18.7949 21.3057 19.4052 21.3057C20.5843 21.3059 21.5064 20.3665 21.5062 19.1886C21.5059 18.5869 21.2652 18.0489 20.8735 17.6649L20.8829 17.6555L17.0407 13.8136C17.5766 12.7464 17.855 11.5685 17.8538 10.3744C17.8538 6.13119 14.4154 2.69462 10.1738 2.69462C5.9328 2.69462 2.49384 6.13142 2.49384 10.3744ZM14.8339 10.3278C14.8339 12.9798 12.685 15.1281 10.0339 15.1281C7.38336 15.1281 5.23392 12.9798 5.23392 10.3278C5.23392 7.67583 7.38312 5.52806 10.0339 5.52806C12.685 5.52782 14.8339 7.67583 14.8339 10.3278Z" fill="#999999"/>
</svg>
