<svg width="36" height="36" viewBox="0 0 36 36" fill="none" xmlns="http://www.w3.org/2000/svg">
<path d="M19.8 9.9001C19.8 8.22923 19.1362 6.6268 17.9547 5.44532C16.7732 4.26385 15.1708 3.6001 13.5 3.6001C11.8291 3.6001 10.2267 4.26385 9.04518 5.44532C7.8637 6.6268 7.19995 8.22923 7.19995 9.9001C7.19995 11.571 7.8637 13.1734 9.04518 14.3549C10.2267 15.5363 11.8291 16.2001 13.5 16.2001C15.1708 16.2001 16.7732 15.5363 17.9547 14.3549C19.1362 13.1734 19.8 11.571 19.8 9.9001Z" fill="#9255E4"/>
<path d="M26.1 16.2002C26.691 16.2004 27.2763 16.0842 27.8223 15.8581C28.3684 15.6321 28.8646 15.3006 29.2825 14.8827C29.7004 14.4648 30.0319 13.9686 30.2579 13.4226C30.484 12.8765 30.6002 12.2912 30.6 11.7002C30.6 10.8102 30.3361 9.94015 29.8416 9.20013C29.3471 8.46011 28.6443 7.88333 27.8221 7.54274C26.9998 7.20215 26.095 7.11303 25.2221 7.28666C24.3492 7.4603 23.5473 7.88888 22.918 8.51822C22.2887 9.14755 21.8601 9.94938 21.6864 10.8223C21.5128 11.6952 21.6019 12.6 21.9425 13.4223C22.2831 14.2445 22.8599 14.9473 23.5999 15.4418C24.3399 15.9363 25.21 16.2002 26.1 16.2002Z" fill="#9255E4"/>
<path d="M19.7604 25.8786L28.4544 17.1846C29.086 16.5535 29.9424 16.1991 30.8353 16.1995C31.7282 16.1998 32.5843 16.5548 33.2154 17.1864C33.8465 17.818 34.2009 18.6744 34.2006 19.5673C34.2002 20.4601 33.8452 21.3163 33.2136 21.9474L24.5196 30.6396C24.0132 31.1463 23.3786 31.5059 22.6836 31.68L19.9872 32.3532C19.7192 32.4196 19.4386 32.4157 19.1726 32.3417C18.9066 32.2677 18.6642 32.1263 18.469 31.9311C18.2737 31.7358 18.1323 31.4934 18.0583 31.2274C17.9843 30.9614 17.9804 30.6808 18.0468 30.4128L18.72 27.7164C18.8946 27.0216 19.2528 26.3844 19.7604 25.8804V25.8786Z" fill="#9255E4"/>
<path d="M19.8 18C20.4793 17.9996 21.1449 18.1914 21.7198 18.5532C22.2947 18.915 22.7555 19.4321 23.049 20.0448L18.486 24.606C17.748 25.344 17.226 26.2674 16.9722 27.279L16.2972 29.9754C16.2612 30.123 16.2342 30.2688 16.218 30.4128C15.3738 30.5352 14.4648 30.6 13.4982 30.6C7.35838 30.6 3.59998 27.9972 3.59998 24.3V21.6C3.59998 20.6452 3.97926 19.7295 4.65439 19.0544C5.32952 18.3793 6.2452 18 7.19998 18H19.8Z" fill="#9255E4"/>
</svg>
