<svg width="36" height="36" viewBox="0 0 36 36" fill="none" xmlns="http://www.w3.org/2000/svg">
<path d="M28.5 4.5H7.5C5.835 4.5 4.5 5.835 4.5 7.5V13.5H7.5V7.5H28.5V28.5H7.5V22.5H4.5V28.5C4.5 29.2957 4.81607 30.0587 5.37868 30.6213C5.94129 31.1839 6.70435 31.5 7.5 31.5H28.5C29.2957 31.5 30.0587 31.1839 30.6213 30.6213C31.1839 30.0587 31.5 29.2957 31.5 28.5V7.5C31.5 6.70435 31.1839 5.94129 30.6213 5.37868C30.0587 4.81607 29.2957 4.5 28.5 4.5ZM15.12 23.37L17.25 25.5L24.75 18L17.25 10.5L15.12 12.615L19.005 16.5H4.5V19.5H19.005L15.12 23.37Z" fill="#9255E4"/>
</svg>
