<svg width="98" height="94" viewBox="0 0 98 94" fill="none" xmlns="http://www.w3.org/2000/svg">
<rect x="1.5" y="1.5" width="95" height="91" rx="10.5" fill="white" stroke="#C4C4C4" stroke-width="3"/>
<path d="M64.7708 75.3439H48.0932C44.9256 75.3439 41.9501 74.0241 39.9344 71.7205L39.0945 70.7606L40.9902 69.1048L41.8301 70.0647C43.3659 71.8164 45.6455 72.8243 48.0692 72.8243H64.7468C65.8986 72.8243 66.8345 72.0084 66.8345 71.0006C66.8345 69.9927 65.8986 69.1768 64.7468 69.1768H62.7791C61.9872 69.1768 61.3393 68.5289 61.3393 67.737V67.641C61.3393 66.8492 61.9872 66.2012 62.7791 66.2012H65.2267C66.3786 66.2012 67.3144 65.3854 67.3144 64.3775C67.3144 63.3697 66.3786 62.5538 65.2267 62.5538H62.7791C61.9872 62.5538 61.3393 61.9059 61.3393 61.114V60.994C61.3393 60.2021 61.9872 59.5542 62.7791 59.5542H65.4907C66.6425 59.5542 67.5784 58.7383 67.5784 57.7305C67.5784 56.7226 66.6425 55.9067 65.4907 55.9067H62.7791C61.9872 55.9067 61.3393 55.2588 61.3393 54.4669V54.3709C61.3393 53.5791 61.9872 52.9312 62.7791 52.9312H65.2027C66.3546 52.9312 67.2904 52.1153 67.2904 51.1074C67.2904 50.0996 66.3546 49.2837 65.2027 49.2837H54.4523C54.0203 49.2837 53.6124 49.0917 53.3244 48.7318C53.0365 48.3718 52.9405 47.9159 53.0365 47.4839C53.4204 45.8522 53.6844 44.6523 53.9963 43.2845L54.0443 43.1166C54.1643 42.5406 54.3083 41.9167 54.4523 41.2208C54.7642 39.805 54.9082 33.9979 51.8127 33.254C51.5967 33.206 51.3807 33.182 51.2127 33.182C50.3489 33.182 50.1329 34.2618 49.8929 36.8295C49.7969 37.7893 49.725 38.6772 49.509 39.4931C48.3332 44.0764 46.9893 47.1 42.8859 51.0114C42.8619 51.0354 42.8379 51.0594 42.8139 51.0834C42.526 51.3234 42.238 51.5634 41.9981 51.8273C41.9741 51.8513 41.9501 51.8753 41.9261 51.8993L40.8462 52.8592L39.1665 50.9874L40.1983 50.0516C40.5103 49.7396 40.8462 49.4277 41.1822 49.1397C44.8537 45.6362 45.9575 43.1406 47.0613 38.8692C47.2053 38.2693 47.2773 37.4534 47.3733 36.6135C47.5893 34.2378 47.9012 30.6624 51.2127 30.6624C51.5727 30.6624 51.9806 30.7103 52.3886 30.8063C57.3799 31.9822 57.4518 39.3491 56.9239 41.7728C56.7799 42.4687 56.636 43.0686 56.516 43.6685L56.468 43.8365C56.252 44.8203 56.06 45.7322 55.8201 46.764H65.2267C67.7704 46.764 69.8341 48.7078 69.8341 51.1074C69.8341 52.3792 69.2582 53.5071 68.3463 54.299C69.4261 55.0908 70.122 56.3387 70.122 57.7065C70.122 59.0983 69.4261 60.3221 68.3463 61.114C69.2821 61.9059 69.8581 63.0577 69.8581 64.3295C69.8581 65.7693 69.1142 67.0411 67.9623 67.833C68.8262 68.6249 69.3781 69.7287 69.3781 70.9526C69.3781 73.4002 67.3144 75.3439 64.7708 75.3439Z" fill="#444444"/>
<path d="M39.3343 49.1638C39.7423 49.1638 40.1022 49.4997 40.1022 49.9317V72.8484C40.1022 73.2563 39.7663 73.6163 39.3343 73.6163H28.2479V72.8484V72.0805V50.6756V49.9077V49.1398H39.3343V49.1638Z" fill="#FFA04D"/>
<path d="M39.3342 74.84H28.2478C27.5519 74.84 27 74.2641 27 73.5922V49.1637C27 48.4678 27.5759 47.9159 28.2478 47.9159H39.3102C40.4141 47.9159 41.3259 48.8278 41.3259 49.9316V72.8483C41.3499 73.9522 40.4381 74.84 39.3342 74.84ZM29.5196 72.3204H38.8303V50.4115H29.5196V72.3204Z" fill="#444444"/>
<path d="M52.3405 19H50.4688V27.0388H52.3405V19Z" fill="#A475FF"/>
<path d="M64.3904 24.0082L58.7061 29.6924L60.0296 31.0159L65.7139 25.3317L64.3904 24.0082Z" fill="#A475FF"/>
<path d="M38.4579 24.1031L37.1344 25.4266L42.8187 31.1108L44.1422 29.7874L38.4579 24.1031Z" fill="#A475FF"/>
</svg>
