<svg width="36" height="36" viewBox="0 0 36 36" fill="none" xmlns="http://www.w3.org/2000/svg">
<path d="M24 12H12V9H24V12ZM24 15H12V18H24V15ZM30 6V24L21 33H9C8.20435 33 7.44129 32.6839 6.87868 32.1213C6.31607 31.5587 6 30.7956 6 30V6C6 5.20435 6.31607 4.44129 6.87868 3.87868C7.44129 3.31607 8.20435 3 9 3H27C27.7956 3 28.5587 3.31607 29.1213 3.87868C29.6839 4.44129 30 5.20435 30 6ZM27 21V6H9V30H18V24C18 23.2044 18.3161 22.4413 18.8787 21.8787C19.4413 21.3161 20.2044 21 21 21H27Z" fill="#9255E4"/>
</svg>
