<svg width="32" height="32" viewBox="0 0 32 32" fill="none" xmlns="http://www.w3.org/2000/svg">
<path d="M14.6667 21.3333C14.313 21.3333 13.9739 21.4738 13.7239 21.7238C13.4738 21.9739 13.3333 22.313 13.3333 22.6666C13.3333 23.0202 13.4738 23.3594 13.7239 23.6094C13.9739 23.8595 14.313 24 14.6667 24H17.3333C17.687 24 18.0261 23.8595 18.2761 23.6094C18.5262 23.3594 18.6667 23.0202 18.6667 22.6666C18.6667 22.313 18.5262 21.9739 18.2761 21.7238C18.0261 21.4738 17.687 21.3333 17.3333 21.3333H14.6667ZM12 2.66663C10.9391 2.66663 9.92172 3.08805 9.17157 3.8382C8.42143 4.58834 8 5.60576 8 6.66663V25.3333C8 26.3942 8.42143 27.4116 9.17157 28.1617C9.92172 28.9119 10.9391 29.3333 12 29.3333H20C21.0609 29.3333 22.0783 28.9119 22.8284 28.1617C23.5786 27.4116 24 26.3942 24 25.3333V6.66663C24 5.60576 23.5786 4.58834 22.8284 3.8382C22.0783 3.08805 21.0609 2.66663 20 2.66663H12ZM10.6667 6.66663C10.6667 6.313 10.8071 5.97387 11.0572 5.72382C11.3072 5.47377 11.6464 5.33329 12 5.33329H20C20.3536 5.33329 20.6928 5.47377 20.9428 5.72382C21.1929 5.97387 21.3333 6.313 21.3333 6.66663V25.3333C21.3333 25.6869 21.1929 26.0261 20.9428 26.2761C20.6928 26.5262 20.3536 26.6666 20 26.6666H12C11.6464 26.6666 11.3072 26.5262 11.0572 26.2761C10.8071 26.0261 10.6667 25.6869 10.6667 25.3333V6.66663Z" fill="#999999"/>
</svg>
