<svg width="32" height="32" viewBox="0 0 32 32" fill="none" xmlns="http://www.w3.org/2000/svg">
<path d="M16 2.66663C12.324 2.66663 9.33337 5.65729 9.33337 9.33329V12H8.00004C6.52937 12 5.33337 13.196 5.33337 14.6666V26.6666C5.33337 28.1373 6.52937 29.3333 8.00004 29.3333H24C25.4707 29.3333 26.6667 28.1373 26.6667 26.6666V14.6666C26.6667 13.196 25.4707 12 24 12H22.6667V9.33329C22.6667 5.65729 19.676 2.66663 16 2.66663ZM12 9.33329C12 7.12796 13.7947 5.33329 16 5.33329C18.2054 5.33329 20 7.12796 20 9.33329V12H12V9.33329ZM24.0027 26.6666H17.3334V23.6293C18.1267 23.1666 18.6667 22.316 18.6667 21.3333C18.6667 19.8626 17.4707 18.6666 16 18.6666C14.5294 18.6666 13.3334 19.8626 13.3334 21.3333C13.3334 22.3146 13.8734 23.1666 14.6667 23.6293V26.6666H8.00004V14.6666H24L24.0027 26.6666Z" fill="#999999"/>
</svg>
