<svg width="36" height="36" viewBox="0 0 36 36" fill="none" xmlns="http://www.w3.org/2000/svg">
<path d="M15 18C18.3137 18 21 15.3137 21 12C21 8.68629 18.3137 6 15 6C11.6863 6 9 8.68629 9 12C9 15.3137 11.6863 18 15 18Z" fill="#9255E4"/>
<path d="M15.525 21.015C11.43 20.865 3 22.905 3 27V30H17.31C13.605 25.86 15.465 21.165 15.525 21.015ZM29.145 27.03C29.685 26.145 30 25.11 30 24C30 20.685 27.315 18 24 18C20.685 18 18 20.685 18 24C18 27.315 20.685 30 24 30C25.11 30 26.145 29.67 27.03 29.145L30.885 33L33 30.885L29.145 27.03ZM24 27C22.35 27 21 25.65 21 24C21 22.35 22.35 21 24 21C25.65 21 27 22.35 27 24C27 25.65 25.65 27 24 27Z" fill="#9255E4"/>
</svg>
