<svg width="36" height="36" viewBox="0 0 36 36" fill="none" xmlns="http://www.w3.org/2000/svg">
<path d="M9.60129 22.5013C9.74006 22.6403 9.90489 22.7507 10.0864 22.8259C10.2678 22.9012 10.4623 22.9399 10.6588 22.9399C10.8552 22.9399 11.0498 22.9012 11.2312 22.8259C11.4127 22.7507 11.5775 22.6403 11.7163 22.5013L17.5363 16.6813L23.3563 22.5013C23.6368 22.7817 24.0171 22.9393 24.4138 22.9393C24.8104 22.9393 25.1908 22.7817 25.4713 22.5013C25.7518 22.2208 25.9093 21.8404 25.9093 21.4438C25.9093 21.0471 25.7518 20.6667 25.4713 20.3863L18.5863 13.5013C18.4475 13.3622 18.2827 13.2519 18.1012 13.1766C17.9198 13.1014 17.7252 13.0626 17.5288 13.0626C17.3323 13.0626 17.1378 13.1014 16.9564 13.1766C16.7749 13.2519 16.6101 13.3622 16.4713 13.5013L9.58629 20.3863C9.01629 20.9563 9.01629 21.9163 9.60129 22.5013Z" fill="#999999"/>
</svg>
