<svg width="234" height="77" viewBox="0 0 234 77" fill="none" xmlns="http://www.w3.org/2000/svg">
<path d="M73.2564 21.578C72.2937 21.5527 71.4704 21.35 70.7864 20.97C70.1024 20.59 69.5324 20.1087 69.0764 19.526C68.6457 18.9433 68.3164 18.2973 68.0884 17.588C67.8857 16.8533 67.7844 16.144 67.7844 15.46C67.7844 14.776 67.873 14.0793 68.0504 13.37C68.253 12.6607 68.5697 12.0147 69.0004 11.432C69.431 10.8493 70.001 10.3807 70.7104 10.026C71.4197 9.646 72.2937 9.456 73.3324 9.456C74.2697 9.43067 75.0424 9.418 75.6504 9.418C76.2837 9.418 76.879 9.418 77.4364 9.418C77.9937 9.418 78.5764 9.418 79.1844 9.418C79.7924 9.418 80.5777 9.43067 81.5404 9.456C82.579 9.456 83.453 9.646 84.1624 10.026C84.8717 10.3807 85.4417 10.8493 85.8724 11.432C86.303 11.9893 86.607 12.6353 86.7844 13.37C86.987 14.0793 87.0884 14.776 87.0884 15.46C87.0884 16.144 86.9744 16.8533 86.7464 17.588C86.5437 18.2973 86.2144 18.9433 85.7584 19.526C85.3277 20.1087 84.7577 20.59 84.0484 20.97C83.3644 21.35 82.5537 21.5527 81.6164 21.578C80.6537 21.6033 79.8557 21.6287 79.2224 21.654C78.589 21.654 77.9937 21.654 77.4364 21.654C76.879 21.654 76.2837 21.654 75.6504 21.654C75.017 21.6287 74.219 21.6033 73.2564 21.578ZM97.2344 28.798V34.042H70.1024V23.706H76.2584V28.798H97.2344ZM100.388 15.118H96.2084V24.352H90.0524V1.438H96.2084V9.874H100.388V15.118ZM87.5064 8.088H67.3284V3.262H73.7124L74.2824 0.563998H82.2244L81.7304 3.262H87.5064V8.088ZM79.4504 17.17C79.9824 17.1193 80.3624 16.942 80.5904 16.638C80.8184 16.334 80.9324 15.9413 80.9324 15.46C80.9324 14.9533 80.8184 14.5607 80.5904 14.282C80.3624 13.978 79.9824 13.8007 79.4504 13.75C78.9437 13.7247 78.5384 13.712 78.2344 13.712C77.9557 13.712 77.6897 13.712 77.4364 13.712C77.183 13.712 76.9044 13.712 76.6004 13.712C76.3217 13.712 75.929 13.7247 75.4224 13.75C74.8904 13.8007 74.5104 13.978 74.2824 14.282C74.0544 14.5607 73.9404 14.9533 73.9404 15.46C73.9404 15.9413 74.0544 16.334 74.2824 16.638C74.5104 16.942 74.8904 17.1193 75.4224 17.17C75.929 17.1953 76.3217 17.2207 76.6004 17.246C76.9044 17.246 77.183 17.246 77.4364 17.246C77.6897 17.246 77.9557 17.246 78.2344 17.246C78.5384 17.2207 78.9437 17.1953 79.4504 17.17ZM120.429 33.89H113.475V26.138H101.695V20.628H132.361V26.138H120.429V33.89ZM103.329 9.646C103.329 8.126 103.557 6.834 104.013 5.77C104.495 4.706 105.128 3.84467 105.913 3.186C106.724 2.502 107.661 2.008 108.725 1.704C109.815 1.37467 110.98 1.21 112.221 1.21C113.311 1.18467 114.197 1.172 114.881 1.172C115.591 1.14667 116.249 1.134 116.857 1.134C117.491 1.134 118.149 1.14667 118.833 1.172C119.543 1.172 120.442 1.18467 121.531 1.21C122.747 1.23533 123.9 1.41266 124.989 1.742C126.079 2.046 127.029 2.54 127.839 3.224C128.65 3.88267 129.283 4.744 129.739 5.808C130.221 6.84666 130.461 8.126 130.461 9.646C130.461 11.166 130.221 12.458 129.739 13.522C129.283 14.586 128.65 15.46 127.839 16.144C127.029 16.8027 126.079 17.2967 124.989 17.626C123.925 17.93 122.785 18.0947 121.569 18.12C120.556 18.1453 119.695 18.1707 118.985 18.196C118.301 18.196 117.63 18.196 116.971 18.196C116.338 18.196 115.654 18.196 114.919 18.196C114.21 18.1707 113.311 18.1453 112.221 18.12C110.955 18.0947 109.777 17.93 108.687 17.626C107.623 17.2967 106.686 16.8027 105.875 16.144C105.09 15.46 104.469 14.586 104.013 13.522C103.557 12.458 103.329 11.166 103.329 9.646ZM109.371 9.646C109.371 10.2793 109.473 10.7987 109.675 11.204C109.903 11.584 110.195 11.888 110.549 12.116C110.929 12.344 111.36 12.5087 111.841 12.61C112.348 12.7113 112.867 12.7747 113.399 12.8C114.134 12.8507 114.78 12.876 115.337 12.876C115.895 12.876 116.427 12.876 116.933 12.876C117.44 12.876 117.959 12.876 118.491 12.876C119.023 12.8507 119.657 12.8253 120.391 12.8C120.923 12.8 121.43 12.7493 121.911 12.648C122.393 12.5467 122.811 12.382 123.165 12.154C123.545 11.926 123.837 11.6093 124.039 11.204C124.267 10.7987 124.381 10.2793 124.381 9.646C124.381 9.01267 124.267 8.49333 124.039 8.088C123.837 7.68267 123.545 7.366 123.165 7.138C122.785 6.91 122.355 6.758 121.873 6.682C121.392 6.58067 120.885 6.53 120.353 6.53C119.669 6.50467 119.061 6.492 118.529 6.492C117.997 6.46667 117.478 6.454 116.971 6.454C116.465 6.454 115.92 6.46667 115.337 6.492C114.78 6.492 114.134 6.50467 113.399 6.53C112.867 6.55533 112.348 6.61867 111.841 6.72C111.36 6.796 110.929 6.948 110.549 7.176C110.195 7.404 109.903 7.72067 109.675 8.126C109.473 8.506 109.371 9.01267 109.371 9.646ZM163.921 33.206H157.765V1.438H163.921V33.206ZM154.877 32.826H135.269V14.13H147.239V6.72H135.345V1.476H153.395V19.374H141.425V27.582H154.877V32.826ZM29.0659 50.848V55.75H19.6039V57.802H31.4979V62.742H0.793922V57.802H12.6879V55.75H3.07392V43.476H29.0659V48.34H9.22992V50.848H29.0659ZM23.2899 69.544H3.07392V64.68H29.4079V76.004H23.2899V69.544ZM63.0575 75.206H56.9015V60.196H51.1255L53.8235 74.826H48.1235L45.1215 59.93L44.0955 53.014L42.6515 59.93L39.1935 74.826H32.4295L40.5235 43.552H48.0475L50.0615 54.42H56.9015V43.438H63.0575V75.206ZM69.1144 49.062C69.1144 47.8713 69.393 46.896 69.9504 46.136C70.533 45.376 71.255 44.7933 72.1164 44.388C73.003 43.9573 73.9657 43.666 75.0044 43.514C76.043 43.362 77.0437 43.286 78.0064 43.286C79.0957 43.2607 79.9824 43.248 80.6664 43.248C81.3757 43.2227 82.0344 43.21 82.6424 43.21C83.2757 43.21 83.9344 43.2227 84.6184 43.248C85.3277 43.248 86.227 43.2607 87.3164 43.286C88.2537 43.3113 89.2417 43.4 90.2804 43.552C91.3444 43.704 92.307 43.9953 93.1684 44.426C94.055 44.8313 94.7897 45.414 95.3724 46.174C95.955 46.9087 96.2464 47.8713 96.2464 49.062C96.2464 50.278 95.955 51.2533 95.3724 51.988C94.7897 52.6973 94.055 53.2547 93.1684 53.66C92.307 54.0653 91.357 54.3313 90.3184 54.458C89.2797 54.5847 88.2917 54.6607 87.3544 54.686C87.1517 54.7113 86.9617 54.724 86.7844 54.724C86.607 54.724 86.4297 54.724 86.2524 54.724V56.054H98.1464V60.272H67.4424V56.054H79.3364V54.724C79.1337 54.724 78.9184 54.724 78.6904 54.724C78.4877 54.724 78.2597 54.7113 78.0064 54.686C77.0184 54.6607 76.005 54.5847 74.9664 54.458C73.9277 54.3313 72.965 54.0653 72.0784 53.66C71.217 53.2547 70.5077 52.6973 69.9504 51.988C69.393 51.2533 69.1144 50.278 69.1144 49.062ZM96.2464 72.128V76.004H69.7224V66.808H89.7104V65.326H69.7224V61.45H95.8664V70.456H75.9164V72.128H96.2464ZM75.1564 49.062C75.1564 49.5687 75.4857 49.8727 76.1444 49.974C76.8284 50.0753 77.715 50.1513 78.8044 50.202C79.539 50.2273 80.223 50.2527 80.8564 50.278C81.4897 50.278 82.1104 50.278 82.7184 50.278C83.3264 50.2527 83.9344 50.24 84.5424 50.24C85.1504 50.2147 85.8217 50.202 86.5564 50.202C87.6204 50.1767 88.4817 50.1133 89.1404 50.012C89.8244 49.8853 90.1664 49.5687 90.1664 49.062C90.1664 48.5553 89.8244 48.2133 89.1404 48.036C88.4564 47.8587 87.5824 47.77 86.5184 47.77C85.1757 47.7447 83.9217 47.732 82.7564 47.732C81.591 47.732 80.2737 47.7447 78.8044 47.77C77.715 47.8207 76.8284 47.922 76.1444 48.074C75.4857 48.226 75.1564 48.5553 75.1564 49.062ZM119.864 61.906H101.054V50.126H112.834V48.34H101.13V43.476H118.99V54.99H107.21V57.042H119.864V61.906ZM129.706 76.042H102.726V63.844H129.706V76.042ZM108.882 68.708V71.178H123.55V68.708H108.882ZM129.706 62.248H123.55V43.438H129.706V62.248ZM152.559 50.316L151.571 69.582H154.991V74.826H133.977V69.582H136.751L137.739 50.316H143.477L142.489 69.582H145.871L146.897 50.316H152.559ZM134.319 48.72V43.476H155.599V48.72H134.319ZM163.921 75.206H157.765V43.438H163.921V75.206ZM187.534 49.822C187.306 53.3433 187.052 56.6747 186.774 59.816C186.495 62.932 186.128 65.9847 185.672 68.974C185.469 70.2153 185.089 71.2287 184.532 72.014C183.974 72.8247 183.303 73.458 182.518 73.914C181.758 74.37 180.909 74.6867 179.972 74.864C179.034 75.0413 178.084 75.13 177.122 75.13C175.855 75.13 174.677 75.016 173.588 74.788C172.498 74.5853 171.561 74.218 170.776 73.686C169.99 73.1793 169.395 72.508 168.99 71.672C168.584 70.836 168.432 69.7973 168.534 68.556C168.812 65.5413 169.066 62.552 169.294 59.588C169.547 56.5987 169.889 53.4447 170.32 50.126C170.497 48.7327 170.864 47.5927 171.422 46.706C172.004 45.8193 172.701 45.1227 173.512 44.616C174.322 44.084 175.222 43.7293 176.21 43.552C177.223 43.3493 178.249 43.248 179.288 43.248C180.301 43.248 181.314 43.362 182.328 43.59C183.366 43.7927 184.278 44.16 185.064 44.692C185.874 45.1987 186.508 45.87 186.964 46.706C187.445 47.542 187.635 48.5807 187.534 49.822ZM179.782 67.226C179.934 66.0353 180.086 64.8573 180.238 63.692C180.39 62.5267 180.529 61.336 180.656 60.12C180.808 58.904 180.947 57.6247 181.074 56.282C181.2 54.9393 181.327 53.508 181.454 51.988C181.555 50.6707 181.365 49.7587 180.884 49.252C180.428 48.72 179.845 48.454 179.136 48.454C178.781 48.454 178.452 48.5047 178.148 48.606C177.844 48.7073 177.565 48.8973 177.312 49.176C177.058 49.4293 176.83 49.7967 176.628 50.278C176.45 50.734 176.311 51.3293 176.21 52.064C176.007 53.5333 175.83 54.914 175.678 56.206C175.551 57.498 175.424 58.7647 175.298 60.006C175.171 61.222 175.057 62.4253 174.956 63.616C174.854 64.8067 174.753 66.0227 174.652 67.264C174.601 67.8973 174.652 68.404 174.804 68.784C174.956 69.1387 175.158 69.4047 175.412 69.582C175.665 69.7593 175.931 69.8733 176.21 69.924C176.514 69.9493 176.805 69.962 177.084 69.962C177.362 69.962 177.641 69.9367 177.92 69.886C178.224 69.8353 178.49 69.7213 178.718 69.544C178.971 69.3413 179.186 69.0627 179.364 68.708C179.566 68.3533 179.706 67.8593 179.782 67.226ZM201.176 60.196H196.92V75.206H190.764V43.438H196.92V54.914H201.176V60.196ZM231.058 64.11H204.762V43.476H230.716V48.72H210.918V58.828H231.058V64.11ZM233.186 69.962V75.206H202.52V69.962H233.186Z" fill="#713BB9"/>
</svg>
