<svg width="247" height="57" viewBox="0 0 247 57" fill="none" xmlns="http://www.w3.org/2000/svg">
<path d="M63.2065 5.888V9.5H56.2345V11.012H64.9985V14.652H42.3745V11.012H51.1385V9.5H44.0545V0.456H63.2065V4.04H48.5905V5.888H63.2065ZM58.9505 19.664H44.0545V16.08H63.4585V24.424H58.9505V19.664ZM88.2529 23.836H83.7169V12.776H79.4609L81.4489 23.556H77.2489L75.0369 12.58L74.2809 7.484L73.2169 12.58L70.6689 23.556H65.6849L71.6489 0.511999H77.1929L78.6769 8.52H83.7169V0.427998H88.2529V23.836ZM92.7158 4.572C92.7158 3.69467 92.9212 2.976 93.3318 2.416C93.7612 1.856 94.2932 1.42667 94.9278 1.128C95.5812 0.810666 96.2905 0.595999 97.0558 0.483999C97.8212 0.372 98.5585 0.316 99.2678 0.316C100.071 0.297332 100.724 0.287998 101.228 0.287998C101.751 0.269332 102.236 0.259999 102.684 0.259999C103.151 0.259999 103.636 0.269332 104.14 0.287998C104.663 0.287998 105.325 0.297332 106.128 0.316C106.819 0.334666 107.547 0.399999 108.312 0.511999C109.096 0.623999 109.805 0.838665 110.44 1.156C111.093 1.45467 111.635 1.884 112.064 2.444C112.493 2.98533 112.708 3.69467 112.708 4.572C112.708 5.468 112.493 6.18667 112.064 6.728C111.635 7.25067 111.093 7.66133 110.44 7.96C109.805 8.25867 109.105 8.45467 108.34 8.548C107.575 8.64133 106.847 8.69733 106.156 8.716C106.007 8.73467 105.867 8.744 105.736 8.744C105.605 8.744 105.475 8.744 105.344 8.744V9.724H114.108V12.832H91.4838V9.724H100.248V8.744C100.099 8.744 99.9398 8.744 99.7718 8.744C99.6225 8.744 99.4545 8.73467 99.2678 8.716C98.5398 8.69733 97.7932 8.64133 97.0278 8.548C96.2625 8.45467 95.5532 8.25867 94.8998 7.96C94.2652 7.66133 93.7425 7.25067 93.3318 6.728C92.9212 6.18667 92.7158 5.468 92.7158 4.572ZM112.708 21.568V24.424H93.1638V17.648H107.892V16.556H93.1638V13.7H112.428V20.336H97.7278V21.568H112.708ZM97.1678 4.572C97.1678 4.94533 97.4105 5.16933 97.8958 5.244C98.3998 5.31867 99.0532 5.37467 99.8558 5.412C100.397 5.43067 100.901 5.44933 101.368 5.468C101.835 5.468 102.292 5.468 102.74 5.468C103.188 5.44933 103.636 5.44 104.084 5.44C104.532 5.42133 105.027 5.412 105.568 5.412C106.352 5.39333 106.987 5.34667 107.472 5.272C107.976 5.17867 108.228 4.94533 108.228 4.572C108.228 4.19867 107.976 3.94667 107.472 3.816C106.968 3.68533 106.324 3.62 105.54 3.62C104.551 3.60133 103.627 3.592 102.768 3.592C101.909 3.592 100.939 3.60133 99.8558 3.62C99.0532 3.65733 98.3998 3.732 97.8958 3.844C97.4105 3.956 97.1678 4.19867 97.1678 4.572ZM130.11 14.036H116.25V5.356H124.93V4.04H116.306V0.456H129.466V8.94H120.786V10.452H130.11V14.036ZM137.362 24.452H117.482V15.464H137.362V24.452ZM122.018 19.048V20.868H132.826V19.048H122.018ZM137.362 14.288H132.826V0.427998H137.362V14.288ZM154.201 5.496L153.473 19.692H155.993V23.556H140.509V19.692H142.553L143.281 5.496H147.509L146.781 19.692H149.273L150.029 5.496H154.201ZM140.761 4.32V0.456H156.441V4.32H140.761ZM162.573 23.836H158.037V0.427998H162.573V23.836ZM179.972 5.132C179.804 7.72667 179.617 10.1813 179.412 12.496C179.207 14.792 178.936 17.0413 178.6 19.244C178.451 20.1587 178.171 20.9053 177.76 21.484C177.349 22.0813 176.855 22.548 176.276 22.884C175.716 23.22 175.091 23.4533 174.4 23.584C173.709 23.7147 173.009 23.78 172.3 23.78C171.367 23.78 170.499 23.696 169.696 23.528C168.893 23.3787 168.203 23.108 167.624 22.716C167.045 22.3427 166.607 21.848 166.308 21.232C166.009 20.616 165.897 19.8507 165.972 18.936C166.177 16.7147 166.364 14.512 166.532 12.328C166.719 10.1253 166.971 7.80133 167.288 5.356C167.419 4.32933 167.689 3.48933 168.1 2.836C168.529 2.18267 169.043 1.66933 169.64 1.296C170.237 0.903999 170.9 0.642666 171.628 0.511999C172.375 0.362665 173.131 0.287998 173.896 0.287998C174.643 0.287998 175.389 0.371998 176.136 0.539999C176.901 0.689332 177.573 0.959999 178.152 1.352C178.749 1.72533 179.216 2.22 179.552 2.836C179.907 3.452 180.047 4.21733 179.972 5.132ZM174.26 17.956C174.372 17.0787 174.484 16.2107 174.596 15.352C174.708 14.4933 174.811 13.616 174.904 12.72C175.016 11.824 175.119 10.8813 175.212 9.892C175.305 8.90267 175.399 7.848 175.492 6.728C175.567 5.75733 175.427 5.08533 175.072 4.712C174.736 4.32 174.307 4.124 173.784 4.124C173.523 4.124 173.28 4.16133 173.056 4.236C172.832 4.31067 172.627 4.45067 172.44 4.656C172.253 4.84267 172.085 5.11333 171.936 5.468C171.805 5.804 171.703 6.24267 171.628 6.784C171.479 7.86667 171.348 8.884 171.236 9.836C171.143 10.788 171.049 11.7213 170.956 12.636C170.863 13.532 170.779 14.4187 170.704 15.296C170.629 16.1733 170.555 17.0693 170.48 17.984C170.443 18.4507 170.48 18.824 170.592 19.104C170.704 19.3653 170.853 19.5613 171.04 19.692C171.227 19.8227 171.423 19.9067 171.628 19.944C171.852 19.9627 172.067 19.972 172.272 19.972C172.477 19.972 172.683 19.9533 172.888 19.916C173.112 19.8787 173.308 19.7947 173.476 19.664C173.663 19.5147 173.821 19.3093 173.952 19.048C174.101 18.7867 174.204 18.4227 174.26 17.956ZM190.024 12.776H186.888V23.836H182.352V0.427998H186.888V8.884H190.024V12.776ZM212.043 15.66H192.667V0.456H211.791V4.32H197.203V11.768H212.043V15.66ZM213.611 19.972V23.836H191.015V19.972H213.611ZM23.0381 48.836H18.5021V40.8H14.1061L15.5621 45.952H11.5021L9.59806 39.064L9.12206 37.496L8.67406 38.98L5.76206 45.98H0.750063L6.43406 32.484H11.7541L12.9021 36.544H18.5021V32.428H23.0381V48.836ZM7.83406 52.588H23.4021V56.452H3.29806V47.744H7.83406V52.588ZM42.845 37.216H44.413V32.456H48.669V46.568H44.413V40.968H42.845V46.568H38.589V32.456H42.845V37.216ZM37.469 46.036H26.857V32.456H37.245V36.04H31.393V37.496H37.245V40.94H31.393V42.452H37.469V46.036ZM44.133 51.244H27.725V47.464H48.669V56.452H44.133V51.244ZM73.1948 37.132C73.0268 39.7267 72.8401 42.1813 72.6348 44.496C72.4295 46.792 72.1588 49.0413 71.8228 51.244C71.6735 52.1587 71.3935 52.9053 70.9828 53.484C70.5721 54.0813 70.0775 54.548 69.4988 54.884C68.9388 55.22 68.3135 55.4533 67.6228 55.584C66.9321 55.7147 66.2321 55.78 65.5228 55.78C64.5895 55.78 63.7215 55.696 62.9188 55.528C62.1161 55.3787 61.4255 55.108 60.8468 54.716C60.2681 54.3427 59.8295 53.848 59.5308 53.232C59.2321 52.616 59.1201 51.8507 59.1948 50.936C59.4001 48.7147 59.5868 46.512 59.7548 44.328C59.9415 42.1253 60.1935 39.8013 60.5108 37.356C60.6415 36.3293 60.9121 35.4893 61.3228 34.836C61.7521 34.1827 62.2655 33.6693 62.8628 33.296C63.4601 32.904 64.1228 32.6427 64.8508 32.512C65.5975 32.3627 66.3535 32.288 67.1188 32.288C67.8655 32.288 68.6121 32.372 69.3588 32.54C70.1241 32.6893 70.7961 32.96 71.3748 33.352C71.9721 33.7253 72.4388 34.22 72.7748 34.836C73.1295 35.452 73.2695 36.2173 73.1948 37.132ZM67.4828 49.956C67.5948 49.0787 67.7068 48.2107 67.8188 47.352C67.9308 46.4933 68.0335 45.616 68.1268 44.72C68.2388 43.824 68.3415 42.8813 68.4348 41.892C68.5281 40.9027 68.6215 39.848 68.7148 38.728C68.7895 37.7573 68.6495 37.0853 68.2948 36.712C67.9588 36.32 67.5295 36.124 67.0068 36.124C66.7455 36.124 66.5028 36.1613 66.2788 36.236C66.0548 36.3107 65.8495 36.4507 65.6628 36.656C65.4761 36.8427 65.3081 37.1133 65.1588 37.468C65.0281 37.804 64.9255 38.2427 64.8508 38.784C64.7015 39.8667 64.5708 40.884 64.4588 41.836C64.3655 42.788 64.2721 43.7213 64.1788 44.636C64.0855 45.532 64.0015 46.4187 63.9268 47.296C63.8521 48.1733 63.7775 49.0693 63.7028 49.984C63.6655 50.4507 63.7028 50.824 63.8148 51.104C63.9268 51.3653 64.0761 51.5613 64.2628 51.692C64.4495 51.8227 64.6455 51.9067 64.8508 51.944C65.0748 51.9627 65.2895 51.972 65.4948 51.972C65.7001 51.972 65.9055 51.9533 66.1108 51.916C66.3348 51.8787 66.5308 51.7947 66.6988 51.664C66.8855 51.5147 67.0441 51.3093 67.1748 51.048C67.3241 50.7867 67.4268 50.4227 67.4828 49.956ZM83.2468 44.776H80.1108V55.836H75.5748V32.428H80.1108V40.884H83.2468V44.776ZM106.218 48.836H101.682V32.428H106.218V48.836ZM91.0138 52.588H106.582V56.452H86.4778V47.464H91.0138V52.588ZM98.9938 45.728H84.8258V32.456H89.3618V41.864H98.9938V45.728ZM139.256 53.12V56.424H118.984V48.948H134.16V47.996H118.984V44.692H138.976V52.056H123.828V53.12H139.256ZM117.108 43.572V39.988H119.348L119.656 36.88H123.884L123.576 39.988H126.096L126.404 36.88H130.576L130.268 39.988H132.564V43.572H117.108ZM117.108 36.04V32.456H132.564V36.04H117.108ZM138.976 43.768H134.44V32.428H138.976V43.768ZM156.067 56.34H150.971V50.32H142.235V46.26H164.831V50.32H156.067V56.34ZM164.187 44.496H159.567L154.555 36.432L154.023 35.62L153.491 36.572L148.227 44.496H142.375L150.915 32.316H156.459L164.187 44.496ZM188.337 52.588V56.452H168.345V47.716H172.881V52.588H188.337ZM188.365 48.724H183.829V32.428H188.365V48.724ZM166.693 41.584C166.712 41.2293 166.73 40.8467 166.749 40.436C166.786 40.0067 166.824 39.5867 166.861 39.176C166.898 38.7467 166.936 38.336 166.973 37.944C167.029 37.552 167.085 37.1973 167.141 36.88C167.253 36.1333 167.514 35.4707 167.925 34.892C168.354 34.3133 168.877 33.828 169.493 33.436C170.128 33.0253 170.846 32.7173 171.649 32.512C172.452 32.3067 173.301 32.204 174.197 32.204C175.093 32.204 175.914 32.316 176.661 32.54C177.426 32.7453 178.08 33.0533 178.621 33.464C179.162 33.8747 179.582 34.388 179.881 35.004C180.18 35.6013 180.32 36.2827 180.301 37.048C180.301 37.384 180.282 37.7667 180.245 38.196C180.208 38.6067 180.161 39.036 180.105 39.484C180.068 39.9133 180.021 40.3333 179.965 40.744C179.909 41.1547 179.853 41.528 179.797 41.864C179.685 42.592 179.424 43.2267 179.013 43.768C178.621 44.2907 178.108 44.72 177.473 45.056C176.838 45.392 176.12 45.644 175.317 45.812C174.514 45.9613 173.665 46.036 172.769 46.036C171.873 46.036 171.042 45.9427 170.277 45.756C169.53 45.5693 168.886 45.2893 168.345 44.916C167.804 44.5427 167.384 44.076 167.085 43.516C166.786 42.956 166.656 42.312 166.693 41.584ZM171.481 37.692C171.462 37.804 171.434 37.9813 171.397 38.224C171.378 38.448 171.35 38.6907 171.313 38.952C171.294 39.2133 171.276 39.484 171.257 39.764C171.238 40.0253 171.22 40.2493 171.201 40.436C171.164 41.052 171.276 41.5093 171.537 41.808C171.817 42.088 172.349 42.228 173.133 42.228C173.768 42.228 174.281 42.116 174.673 41.892C175.084 41.6493 175.354 41.2293 175.485 40.632C175.522 40.4453 175.56 40.2213 175.597 39.96C175.653 39.6987 175.69 39.4373 175.709 39.176C175.746 38.896 175.774 38.6347 175.793 38.392C175.812 38.1493 175.821 37.944 175.821 37.776C175.821 36.6187 175.168 36.04 173.861 36.04C173.208 36.04 172.676 36.1707 172.265 36.432C171.854 36.6747 171.593 37.0947 171.481 37.692ZM213.815 37.132C213.647 39.7267 213.46 42.1813 213.255 44.496C213.049 46.792 212.779 49.0413 212.443 51.244C212.293 52.1587 212.004 52.9053 211.575 53.484C211.164 54.0813 210.66 54.548 210.063 54.884C209.484 55.22 208.84 55.4533 208.131 55.584C207.44 55.7147 206.74 55.78 206.031 55.78C205.097 55.78 204.22 55.696 203.399 55.528C202.596 55.3787 201.896 55.108 201.299 54.716C200.72 54.3427 200.272 53.848 199.955 53.232C199.637 52.616 199.516 51.8507 199.591 50.936C199.796 48.7147 199.983 46.512 200.151 44.328C200.337 42.1253 200.589 39.8013 200.907 37.356C201.037 36.3293 201.317 35.4893 201.747 34.836C202.176 34.1827 202.699 33.6693 203.315 33.296C203.931 32.904 204.612 32.6427 205.359 32.512C206.105 32.3627 206.861 32.288 207.627 32.288C208.373 32.288 209.129 32.372 209.895 32.54C210.66 32.6893 211.341 32.96 211.939 33.352C212.555 33.7253 213.04 34.22 213.395 34.836C213.749 35.452 213.889 36.2173 213.815 37.132ZM208.103 49.956C208.215 49.0787 208.327 48.2107 208.439 47.352C208.551 46.4933 208.653 45.616 208.747 44.72C208.859 43.824 208.961 42.8813 209.055 41.892C209.148 40.9027 209.241 39.848 209.335 38.728C209.409 37.7573 209.251 37.0853 208.859 36.712C208.485 36.32 208.037 36.124 207.515 36.124C207.253 36.124 207.001 36.1613 206.759 36.236C206.535 36.3107 206.32 36.4507 206.115 36.656C205.909 36.8427 205.732 37.1133 205.583 37.468C205.433 37.804 205.321 38.2427 205.247 38.784C205.097 39.8667 204.967 40.884 204.855 41.836C204.761 42.788 204.668 43.7213 204.575 44.636C204.481 45.532 204.397 46.4187 204.323 47.296C204.248 48.1733 204.173 49.0693 204.099 49.984C204.061 50.4507 204.099 50.824 204.211 51.104C204.341 51.3653 204.5 51.5613 204.687 51.692C204.892 51.8227 205.107 51.9067 205.331 51.944C205.573 51.9627 205.797 51.972 206.003 51.972C206.208 51.972 206.423 51.9533 206.647 51.916C206.871 51.8787 207.076 51.7947 207.263 51.664C207.468 51.5147 207.645 51.3093 207.795 51.048C207.944 50.7867 208.047 50.4227 208.103 49.956ZM221.067 55.836H216.531V32.428H221.067V55.836ZM225.306 38.476C225.306 37.356 225.474 36.404 225.81 35.62C226.164 34.836 226.631 34.2013 227.21 33.716C227.807 33.212 228.498 32.848 229.282 32.624C230.084 32.3813 230.943 32.26 231.858 32.26C232.66 32.2413 233.314 32.232 233.818 32.232C234.34 32.2133 234.826 32.204 235.274 32.204C235.74 32.204 236.226 32.2133 236.73 32.232C237.252 32.232 237.915 32.2413 238.718 32.26C239.614 32.2787 240.463 32.4093 241.266 32.652C242.068 32.876 242.768 33.24 243.366 33.744C243.963 34.2293 244.43 34.864 244.766 35.648C245.12 36.4133 245.298 37.356 245.298 38.476C245.298 39.596 245.12 40.548 244.766 41.332C244.43 42.116 243.963 42.76 243.366 43.264C242.768 43.7493 242.068 44.1133 241.266 44.356C240.482 44.58 239.642 44.7013 238.746 44.72C237.999 44.7387 237.364 44.7573 236.842 44.776C236.338 44.776 235.843 44.776 235.358 44.776C234.891 44.776 234.387 44.776 233.846 44.776C233.323 44.7573 232.66 44.7387 231.858 44.72C230.924 44.7013 230.056 44.58 229.254 44.356C228.47 44.1133 227.779 43.7493 227.182 43.264C226.603 42.76 226.146 42.116 225.81 41.332C225.474 40.548 225.306 39.596 225.306 38.476ZM242.47 50.628V56.34H237.374V50.628H233.398V56.34H228.302V50.628H224.102V46.568H246.698V50.628H242.47ZM229.758 38.476C229.758 38.9427 229.832 39.3253 229.982 39.624C230.15 39.904 230.364 40.128 230.626 40.296C230.906 40.464 231.223 40.5853 231.578 40.66C231.951 40.7347 232.334 40.7813 232.726 40.8C233.267 40.8373 233.743 40.856 234.154 40.856C234.564 40.856 234.956 40.856 235.33 40.856C235.703 40.856 236.086 40.856 236.478 40.856C236.87 40.8373 237.336 40.8187 237.878 40.8C238.27 40.8 238.643 40.7627 238.998 40.688C239.352 40.6133 239.66 40.492 239.922 40.324C240.202 40.156 240.416 39.9227 240.566 39.624C240.734 39.3253 240.818 38.9427 240.818 38.476C240.818 38.0093 240.734 37.6267 240.566 37.328C240.416 37.0293 240.202 36.796 239.922 36.628C239.642 36.46 239.324 36.348 238.97 36.292C238.615 36.2173 238.242 36.18 237.85 36.18C237.346 36.1613 236.898 36.152 236.506 36.152C236.114 36.1333 235.731 36.124 235.358 36.124C234.984 36.124 234.583 36.1333 234.154 36.152C233.743 36.152 233.267 36.1613 232.726 36.18C232.334 36.1987 231.951 36.2453 231.578 36.32C231.223 36.376 230.906 36.488 230.626 36.656C230.364 36.824 230.15 37.0573 229.982 37.356C229.832 37.636 229.758 38.0093 229.758 38.476Z" fill="black"/>
</svg>
