<svg width="213" height="26" viewBox="0 0 213 26" fill="none" xmlns="http://www.w3.org/2000/svg">
<path d="M20.9682 6.888V10.5H13.9962V12.012H22.7602V15.652H0.136188V12.012H8.90019V10.5H1.81619V1.456H20.9682V5.04H6.35219V6.888H20.9682ZM16.7122 20.664H1.81619V17.08H21.2202V25.424H16.7122V20.664ZM46.0146 24.836H41.4786V13.776H37.2226L39.2106 24.556H35.0106L32.7986 13.58L32.0426 8.484L30.9786 13.58L28.4306 24.556H23.4466L29.4106 1.512H34.9546L36.4386 9.52H41.4786V1.428H46.0146V24.836ZM50.4776 5.572C50.4776 4.69467 50.6829 3.976 51.0936 3.416C51.5229 2.856 52.0549 2.42667 52.6896 2.128C53.3429 1.81067 54.0522 1.596 54.8176 1.484C55.5829 1.372 56.3202 1.316 57.0296 1.316C57.8322 1.29733 58.4856 1.288 58.9896 1.288C59.5122 1.26933 59.9976 1.26 60.4456 1.26C60.9122 1.26 61.3976 1.26933 61.9016 1.288C62.4242 1.288 63.0869 1.29733 63.8896 1.316C64.5802 1.33467 65.3082 1.4 66.0736 1.512C66.8576 1.624 67.5669 1.83867 68.2016 2.156C68.8549 2.45467 69.3962 2.884 69.8256 3.444C70.2549 3.98533 70.4696 4.69467 70.4696 5.572C70.4696 6.468 70.2549 7.18667 69.8256 7.728C69.3962 8.25067 68.8549 8.66133 68.2016 8.96C67.5669 9.25867 66.8669 9.45467 66.1016 9.548C65.3362 9.64133 64.6082 9.69733 63.9176 9.716C63.7682 9.73467 63.6282 9.744 63.4976 9.744C63.3669 9.744 63.2362 9.744 63.1056 9.744V10.724H71.8696V13.832H49.2456V10.724H58.0096V9.744C57.8602 9.744 57.7016 9.744 57.5336 9.744C57.3842 9.744 57.2162 9.73467 57.0296 9.716C56.3016 9.69733 55.5549 9.64133 54.7896 9.548C54.0242 9.45467 53.3149 9.25867 52.6616 8.96C52.0269 8.66133 51.5042 8.25067 51.0936 7.728C50.6829 7.18667 50.4776 6.468 50.4776 5.572ZM70.4696 22.568V25.424H50.9256V18.648H65.6536V17.556H50.9256V14.7H70.1896V21.336H55.4896V22.568H70.4696ZM54.9296 5.572C54.9296 5.94533 55.1722 6.16933 55.6576 6.244C56.1616 6.31867 56.8149 6.37467 57.6176 6.412C58.1589 6.43067 58.6629 6.44933 59.1296 6.468C59.5962 6.468 60.0536 6.468 60.5016 6.468C60.9496 6.44933 61.3976 6.44 61.8456 6.44C62.2936 6.42133 62.7882 6.412 63.3296 6.412C64.1136 6.39333 64.7482 6.34667 65.2336 6.272C65.7376 6.17867 65.9896 5.94533 65.9896 5.572C65.9896 5.19867 65.7376 4.94667 65.2336 4.816C64.7296 4.68533 64.0856 4.62 63.3016 4.62C62.3122 4.60133 61.3882 4.592 60.5296 4.592C59.6709 4.592 58.7002 4.60133 57.6176 4.62C56.8149 4.65733 56.1616 4.732 55.6576 4.844C55.1722 4.956 54.9296 5.19867 54.9296 5.572ZM87.872 15.036H74.012V6.356H82.692V5.04H74.068V1.456H87.228V9.94H78.548V11.452H87.872V15.036ZM95.124 25.452H75.244V16.464H95.124V25.452ZM79.78 20.048V21.868H90.588V20.048H79.78ZM95.124 15.288H90.588V1.428H95.124V15.288ZM111.963 6.496L111.235 20.692H113.755V24.556H98.2709V20.692H100.315L101.043 6.496H105.271L104.543 20.692H107.035L107.791 6.496H111.963ZM98.5229 5.32V1.456H114.203V5.32H98.5229ZM120.335 24.836H115.799V1.428H120.335V24.836ZM137.734 6.132C137.566 8.72667 137.379 11.1813 137.174 13.496C136.969 15.792 136.698 18.0413 136.362 20.244C136.213 21.1587 135.933 21.9053 135.522 22.484C135.111 23.0813 134.617 23.548 134.038 23.884C133.478 24.22 132.853 24.4533 132.162 24.584C131.471 24.7147 130.771 24.78 130.062 24.78C129.129 24.78 128.261 24.696 127.458 24.528C126.655 24.3787 125.965 24.108 125.386 23.716C124.807 23.3427 124.369 22.848 124.07 22.232C123.771 21.616 123.659 20.8507 123.734 19.936C123.939 17.7147 124.126 15.512 124.294 13.328C124.481 11.1253 124.733 8.80133 125.05 6.356C125.181 5.32933 125.451 4.48933 125.862 3.836C126.291 3.18267 126.805 2.66933 127.402 2.296C127.999 1.904 128.662 1.64267 129.39 1.512C130.137 1.36267 130.893 1.288 131.658 1.288C132.405 1.288 133.151 1.372 133.898 1.54C134.663 1.68933 135.335 1.96 135.914 2.352C136.511 2.72533 136.978 3.22 137.314 3.836C137.669 4.452 137.809 5.21733 137.734 6.132ZM132.022 18.956C132.134 18.0787 132.246 17.2107 132.358 16.352C132.47 15.4933 132.573 14.616 132.666 13.72C132.778 12.824 132.881 11.8813 132.974 10.892C133.067 9.90267 133.161 8.848 133.254 7.728C133.329 6.75733 133.189 6.08533 132.834 5.712C132.498 5.32 132.069 5.124 131.546 5.124C131.285 5.124 131.042 5.16133 130.818 5.236C130.594 5.31067 130.389 5.45067 130.202 5.656C130.015 5.84267 129.847 6.11333 129.698 6.468C129.567 6.804 129.465 7.24267 129.39 7.784C129.241 8.86667 129.11 9.884 128.998 10.836C128.905 11.788 128.811 12.7213 128.718 13.636C128.625 14.532 128.541 15.4187 128.466 16.296C128.391 17.1733 128.317 18.0693 128.242 18.984C128.205 19.4507 128.242 19.824 128.354 20.104C128.466 20.3653 128.615 20.5613 128.802 20.692C128.989 20.8227 129.185 20.9067 129.39 20.944C129.614 20.9627 129.829 20.972 130.034 20.972C130.239 20.972 130.445 20.9533 130.65 20.916C130.874 20.8787 131.07 20.7947 131.238 20.664C131.425 20.5147 131.583 20.3093 131.714 20.048C131.863 19.7867 131.966 19.4227 132.022 18.956ZM147.786 13.776H144.65V24.836H140.114V1.428H144.65V9.884H147.786V13.776ZM169.805 16.66H150.429V1.456H169.553V5.32H154.965V12.768H169.805V16.66ZM171.373 20.972V24.836H148.777V20.972H171.373ZM196.951 11.228H193.871V18.06H189.335V1.428H193.871V7.364H196.951V11.228ZM194.627 21.588V25.452H174.635V17.556H179.171V21.588H194.627ZM187.403 15.96H173.543V6.86H181.943V5.04H173.599V1.456H186.479V10.444H178.079V12.376H187.403V15.96ZM205.922 0.699999C207.005 0.699999 207.985 0.849332 208.862 1.148C209.74 1.428 210.477 1.82933 211.074 2.352C211.69 2.87467 212.157 3.49067 212.474 4.2C212.81 4.89067 212.978 5.656 212.978 6.496C212.978 7.46667 212.848 8.288 212.586 8.96C212.344 9.632 212.036 10.2293 211.662 10.752C211.308 11.256 210.906 11.7133 210.458 12.124C210.029 12.516 209.628 12.9173 209.254 13.328C208.881 13.72 208.564 14.1587 208.302 14.644C208.06 15.1293 207.938 15.708 207.938 16.38V18.816H203.458V16.296C203.458 15.1387 203.673 14.1213 204.102 13.244C204.532 12.348 205.11 11.5453 205.838 10.836C206.156 10.5187 206.473 10.22 206.79 9.94C207.108 9.66 207.388 9.37067 207.63 9.072C207.892 8.77333 208.097 8.44667 208.246 8.092C208.414 7.73733 208.498 7.31733 208.498 6.832C208.498 6.06667 208.228 5.488 207.686 5.096C207.164 4.704 206.557 4.508 205.866 4.508C204.952 4.508 204.252 4.76 203.766 5.264C203.281 5.74933 203.02 6.53333 202.982 7.616H198.53C198.549 6.40267 198.736 5.35733 199.09 4.48C199.464 3.60267 199.977 2.884 200.63 2.324C201.284 1.764 202.058 1.35333 202.954 1.092C203.85 0.830666 204.84 0.699999 205.922 0.699999ZM203.066 20.58H208.274V25.396H203.066V20.58Z" fill="black"/>
</svg>
