<svg width="210" height="25" viewBox="0 0 210 25" fill="none" xmlns="http://www.w3.org/2000/svg">
<path d="M0.174563 23.724C0.566563 23.2573 1.0519 22.6693 1.63056 21.96C2.20923 21.2693 2.8159 20.5227 3.45056 19.72C4.08523 18.9173 4.7199 18.1053 5.35456 17.284C6.0079 16.444 6.60523 15.6693 7.14656 14.96C7.6879 14.2507 8.14523 13.644 8.51856 13.14C8.8919 12.6173 9.13456 12.2627 9.24656 12.076C9.63856 11.4227 9.94656 10.8627 10.1706 10.396C10.4132 9.91067 10.5906 9.48133 10.7026 9.108C10.8332 8.73467 10.9172 8.39867 10.9546 8.1C11.0106 7.78267 11.0386 7.456 11.0386 7.12C11.0572 6.28 10.8332 5.608 10.3666 5.104C9.91856 4.6 9.16256 4.348 8.09856 4.348C7.50123 4.348 7.00656 4.432 6.61456 4.6C6.22256 4.768 5.90523 4.992 5.66256 5.272C5.43856 5.552 5.27056 5.86933 5.15856 6.224C5.06523 6.57867 5.00923 6.94267 4.99056 7.316H0.566563C0.659896 6.04667 0.930563 4.97333 1.37856 4.096C1.82656 3.21867 2.38656 2.50933 3.05856 1.968C3.74923 1.408 4.5239 1.00667 5.38256 0.763999C6.24123 0.521332 7.13723 0.399999 8.07056 0.399999C10.5346 0.399999 12.4012 0.987999 13.6706 2.164C14.9399 3.32133 15.5746 4.964 15.5746 7.092C15.5746 7.63333 15.5279 8.14667 15.4346 8.632C15.3599 9.11733 15.2386 9.60267 15.0706 10.088C14.9026 10.5733 14.6786 11.0773 14.3986 11.6C14.1372 12.104 13.8106 12.664 13.4186 13.28C13.2506 13.5227 12.9892 13.9147 12.6346 14.456C12.2986 14.9787 11.8972 15.5667 11.4306 16.22C10.9826 16.8547 10.4972 17.5267 9.97456 18.236C9.47056 18.9267 8.98523 19.5613 8.51856 20.14H16.0786V23.808H0.202563L0.174563 23.724ZM17.8511 9.192C17.8511 6.20533 18.5791 4.00267 20.0351 2.584C21.5098 1.16533 23.6658 0.456 26.5031 0.456C29.3218 0.456 31.4684 1.16533 32.9431 2.584C34.4178 4.00267 35.1551 6.20533 35.1551 9.192V15.576C35.1551 18.544 34.4178 20.728 32.9431 22.128C31.4871 23.5467 29.3404 24.256 26.5031 24.256C23.6658 24.256 21.5098 23.5467 20.0351 22.128C18.5791 20.728 17.8511 18.544 17.8511 15.576V9.192ZM22.3031 15.156C22.3031 16.1827 22.3871 17.0413 22.5551 17.732C22.7231 18.404 22.9844 18.9453 23.3391 19.356C23.6938 19.7667 24.1324 20.056 24.6551 20.224C25.1778 20.4107 25.7938 20.504 26.5031 20.504C27.2124 20.504 27.8284 20.4107 28.3511 20.224C28.8738 20.056 29.3031 19.7667 29.6391 19.356C29.9751 18.9453 30.2271 18.404 30.3951 17.732C30.5631 17.0413 30.6471 16.1827 30.6471 15.156V9.668C30.6471 8.64133 30.5631 7.78267 30.3951 7.092C30.2271 6.40133 29.9751 5.85067 29.6391 5.44C29.3031 5.01067 28.8738 4.712 28.3511 4.544C27.8284 4.376 27.2124 4.292 26.5031 4.292C25.7938 4.292 25.1778 4.376 24.6551 4.544C24.1324 4.712 23.6938 5.01067 23.3391 5.44C22.9844 5.85067 22.7231 6.40133 22.5551 7.092C22.3871 7.78267 22.3031 8.64133 22.3031 9.668V15.156ZM36.5964 23.724C36.9884 23.2573 37.4738 22.6693 38.0524 21.96C38.6311 21.2693 39.2378 20.5227 39.8724 19.72C40.5071 18.9173 41.1418 18.1053 41.7764 17.284C42.4298 16.444 43.0271 15.6693 43.5684 14.96C44.1098 14.2507 44.5671 13.644 44.9404 13.14C45.3138 12.6173 45.5564 12.2627 45.6684 12.076C46.0604 11.4227 46.3684 10.8627 46.5924 10.396C46.8351 9.91067 47.0124 9.48133 47.1244 9.108C47.2551 8.73467 47.3391 8.39867 47.3764 8.1C47.4324 7.78267 47.4604 7.456 47.4604 7.12C47.4791 6.28 47.2551 5.608 46.7884 5.104C46.3404 4.6 45.5844 4.348 44.5204 4.348C43.9231 4.348 43.4284 4.432 43.0364 4.6C42.6444 4.768 42.3271 4.992 42.0844 5.272C41.8604 5.552 41.6924 5.86933 41.5804 6.224C41.4871 6.57867 41.4311 6.94267 41.4124 7.316H36.9884C37.0818 6.04667 37.3524 4.97333 37.8004 4.096C38.2484 3.21867 38.8084 2.50933 39.4804 1.968C40.1711 1.408 40.9458 1.00667 41.8044 0.763999C42.6631 0.521332 43.5591 0.399999 44.4924 0.399999C46.9564 0.399999 48.8231 0.987999 50.0924 2.164C51.3618 3.32133 51.9964 4.964 51.9964 7.092C51.9964 7.63333 51.9498 8.14667 51.8564 8.632C51.7818 9.11733 51.6604 9.60267 51.4924 10.088C51.3244 10.5733 51.1004 11.0773 50.8204 11.6C50.5591 12.104 50.2324 12.664 49.8404 13.28C49.6724 13.5227 49.4111 13.9147 49.0564 14.456C48.7204 14.9787 48.3191 15.5667 47.8524 16.22C47.4044 16.8547 46.9191 17.5267 46.3964 18.236C45.8924 18.9267 45.4071 19.5613 44.9404 20.14H52.5004V23.808H36.6244L36.5964 23.724ZM53.741 23.724C54.133 23.2573 54.6183 22.6693 55.197 21.96C55.7756 21.2693 56.3823 20.5227 57.017 19.72C57.6516 18.9173 58.2863 18.1053 58.921 17.284C59.5743 16.444 60.1716 15.6693 60.713 14.96C61.2543 14.2507 61.7116 13.644 62.085 13.14C62.4583 12.6173 62.701 12.2627 62.813 12.076C63.205 11.4227 63.513 10.8627 63.737 10.396C63.9796 9.91067 64.157 9.48133 64.269 9.108C64.3996 8.73467 64.4836 8.39867 64.521 8.1C64.577 7.78267 64.605 7.456 64.605 7.12C64.6236 6.28 64.3996 5.608 63.933 5.104C63.485 4.6 62.729 4.348 61.665 4.348C61.0676 4.348 60.573 4.432 60.181 4.6C59.789 4.768 59.4716 4.992 59.229 5.272C59.005 5.552 58.837 5.86933 58.725 6.224C58.6316 6.57867 58.5756 6.94267 58.557 7.316H54.133C54.2263 6.04667 54.497 4.97333 54.945 4.096C55.393 3.21867 55.953 2.50933 56.625 1.968C57.3156 1.408 58.0903 1.00667 58.949 0.763999C59.8076 0.521332 60.7036 0.399999 61.637 0.399999C64.101 0.399999 65.9676 0.987999 67.237 2.164C68.5063 3.32133 69.141 4.964 69.141 7.092C69.141 7.63333 69.0943 8.14667 69.001 8.632C68.9263 9.11733 68.805 9.60267 68.637 10.088C68.469 10.5733 68.245 11.0773 67.965 11.6C67.7036 12.104 67.377 12.664 66.985 13.28C66.817 13.5227 66.5556 13.9147 66.201 14.456C65.865 14.9787 65.4636 15.5667 64.997 16.22C64.549 16.8547 64.0636 17.5267 63.541 18.236C63.037 18.9267 62.5516 19.5613 62.085 20.14H69.645V23.808H53.769L53.741 23.724ZM82.3095 1.8H88.5255V0.427998H93.0615V16.836H88.5255V10.508H82.3095V6.812H88.5255V5.496H82.3095V1.8ZM85.5575 14.792H71.6695V0.456H76.2055V11.208H85.5575V14.792ZM77.8575 20.588H93.4255V24.452H73.3215V16.024H77.8575V20.588ZM120.779 9.36H122.263V0.427998H126.519V23.836H122.263V13.616H120.779V23.836H116.523V0.427998H120.779V9.36ZM115.459 23.556H104.147V0.456H114.647V4.32H108.683V19.692H115.459V23.556ZM130.226 14.288C130.264 13.84 130.301 13.3733 130.338 12.888C130.376 12.4027 130.441 11.88 130.534 11.32C130.646 10.592 130.908 9.96667 131.318 9.444C131.748 8.90267 132.28 8.464 132.914 8.128C133.549 7.792 134.268 7.54933 135.07 7.4C135.873 7.232 136.722 7.148 137.618 7.148C138.514 7.148 139.345 7.25067 140.11 7.456C140.894 7.66133 141.576 7.96933 142.154 8.38C142.733 8.772 143.181 9.26667 143.498 9.864C143.834 10.4613 143.993 11.1427 143.974 11.908C143.956 12.4493 143.909 12.9813 143.834 13.504C143.778 14.008 143.704 14.4747 143.61 14.904C143.405 15.9493 142.929 16.7427 142.182 17.284C141.454 17.8067 140.558 18.1707 139.494 18.376V19.972H145.15V23.836H129.05V19.972H134.454V18.432C133.166 18.208 132.13 17.76 131.346 17.088C130.562 16.3973 130.189 15.464 130.226 14.288ZM151.03 23.836H146.494V0.427998H151.03V23.836ZM144.478 6.448H129.526V2.752H134.146L134.566 0.0639997H140.502L140.082 2.752H144.478V6.448ZM134.734 13.336C134.697 13.8773 134.828 14.2787 135.126 14.54C135.444 14.8013 135.994 14.932 136.778 14.932C137.413 14.932 137.973 14.8387 138.458 14.652C138.944 14.4653 139.233 14.064 139.326 13.448C139.364 13.3173 139.382 13.1867 139.382 13.056C139.401 12.9253 139.429 12.7573 139.466 12.552C139.56 11.992 139.392 11.572 138.962 11.292C138.533 10.9933 137.982 10.844 137.31 10.844C136.657 10.844 136.097 10.9653 135.63 11.208C135.182 11.432 134.921 11.8427 134.846 12.44L134.734 13.336ZM178.776 8.8H180.232V0.427998H184.488V23.836H180.232V13.056H178.776V23.836H174.52V0.427998H178.776V8.8ZM162.284 0.456H173.344L169.48 23.556H165.112L168.304 4.32H162.284V0.456ZM190.939 19.972V14.12C190.099 13.4667 189.436 12.608 188.951 11.544C188.484 10.4613 188.251 9.23867 188.251 7.876C188.251 6.756 188.419 5.72933 188.755 4.796C189.11 3.86267 189.576 3.06 190.155 2.388C190.752 1.716 191.443 1.19333 192.227 0.819998C193.03 0.446665 193.888 0.259999 194.803 0.259999C195.606 0.241332 196.259 0.231999 196.763 0.231999C197.286 0.213333 197.771 0.204 198.219 0.204C198.686 0.204 199.171 0.213333 199.675 0.231999C200.198 0.231999 200.86 0.241332 201.663 0.259999C202.559 0.278665 203.408 0.483999 204.211 0.875999C205.014 1.24933 205.714 1.772 206.311 2.444C206.908 3.09733 207.375 3.89067 207.711 4.824C208.066 5.73867 208.243 6.756 208.243 7.876C208.243 9.22 208 10.4147 207.515 11.46C207.048 12.5053 206.414 13.364 205.611 14.036V19.972H209.643V23.836H187.047V19.972H190.939ZM192.703 7.876C192.703 8.41733 192.778 8.912 192.927 9.36C193.095 9.78933 193.31 10.172 193.571 10.508C193.851 10.8253 194.168 11.0867 194.523 11.292C194.896 11.4787 195.279 11.5813 195.671 11.6C196.212 11.6373 196.688 11.656 197.099 11.656C197.51 11.656 197.902 11.656 198.275 11.656C198.648 11.656 199.031 11.656 199.423 11.656C199.815 11.6373 200.282 11.6187 200.823 11.6C201.215 11.6 201.588 11.5067 201.943 11.32C202.298 11.1147 202.606 10.8533 202.867 10.536C203.147 10.2 203.362 9.808 203.511 9.36C203.679 8.912 203.763 8.41733 203.763 7.876C203.763 7.35333 203.679 6.868 203.511 6.42C203.362 5.95333 203.147 5.56133 202.867 5.244C202.587 4.908 202.27 4.64667 201.915 4.46C201.56 4.27333 201.187 4.18 200.795 4.18C200.291 4.16133 199.843 4.152 199.451 4.152C199.059 4.13333 198.676 4.124 198.303 4.124C197.93 4.124 197.528 4.13333 197.099 4.152C196.688 4.152 196.212 4.16133 195.671 4.18C195.279 4.19867 194.896 4.30133 194.523 4.488C194.168 4.67467 193.851 4.936 193.571 5.272C193.31 5.58933 193.095 5.972 192.927 6.42C192.778 6.868 192.703 7.35333 192.703 7.876ZM200.795 15.548C200.291 15.5667 199.843 15.5853 199.451 15.604C199.059 15.604 198.676 15.604 198.303 15.604C197.93 15.604 197.538 15.604 197.127 15.604C196.735 15.5853 196.278 15.5667 195.755 15.548V19.972H200.795V15.548Z" fill="black"/>
</svg>
