<svg width="221" height="55" viewBox="0 0 221 55" fill="none" xmlns="http://www.w3.org/2000/svg">
<path d="M5.27115 27.4101C5.27115 27.7615 5.27115 29.87 5.27115 29.87C5.27115 29.87 0.234273 29.87 0 29.87C0 30.1042 0 30.5728 0 30.5728C0 31.9784 0.585683 32.0956 1.52278 32.0956H3.5141L3.04555 32.447C1.63991 33.5012 0.819957 35.1411 0.819957 37.1325C0.819957 40.6466 3.39696 43.1064 7.14534 43.1064C10.8937 43.1064 13.4707 40.7637 13.4707 37.1325C13.4707 35.1411 12.6508 33.5012 11.2451 32.447L10.7766 32.0956C10.7766 32.0956 13.9393 32.0956 14.2907 32.0956C14.2907 31.8613 14.2907 30.4557 14.2907 30.4557C14.2907 29.9871 13.8221 29.7528 13.5879 29.7528H8.90239V29.4014C8.90239 29.4014 8.90239 28.9329 8.90239 27.9958C8.90239 27.5272 8.43384 27.293 8.19957 27.293C8.19957 27.4101 5.62256 27.4101 5.27115 27.4101ZM3.86551 37.1325C3.86551 34.7897 5.15401 33.3841 7.14534 33.3841C9.13666 33.3841 10.4252 34.9069 10.4252 37.1325C10.4252 39.4752 9.13666 40.8808 7.14534 40.8808C5.15401 40.8808 3.86551 39.358 3.86551 37.1325ZM18.039 27.8787C18.039 28.2301 18.039 46.152 18.039 46.152C18.039 46.2691 18.039 46.2691 18.1562 46.3862C18.2733 46.5034 18.3905 46.5034 18.6247 46.5034C19.5618 46.5034 20.4989 46.0348 20.9675 45.6834C21.436 45.332 21.436 44.8635 21.436 44.6292V36.6639C21.436 36.6639 24.013 36.6639 24.833 36.6639C24.833 36.4296 24.833 35.024 24.833 35.024C24.833 34.5554 24.3644 34.3212 24.1302 34.3212H21.436V28.5815C21.436 27.9958 20.9675 27.8787 20.6161 27.8787C20.4989 27.8787 18.2733 27.8787 18.039 27.8787ZM4.8026 45.5663C4.8026 45.9177 4.8026 51.0717 4.8026 51.0717C4.8026 52.5945 5.97397 53.4144 7.37961 53.4144C7.37961 53.4144 21.6703 53.4144 22.0217 53.4144C22.0217 53.1802 22.0217 51.7745 22.0217 51.7745C22.0217 51.306 21.5531 51.0717 21.3189 51.0717H8.66811C8.3167 51.0717 8.08243 50.8374 8.08243 50.486V46.152C8.08243 45.6834 7.61388 45.4492 7.37961 45.4492C7.37961 45.5663 5.03688 45.5663 4.8026 45.5663Z" fill="white" fill-opacity="0.8"/>
<path fill-rule="evenodd" clip-rule="evenodd" d="M60.4424 39.0068H53.2971C53.2971 39.0068 53.2971 44.0437 53.2971 44.5123C53.2971 44.9808 53.4142 45.0979 53.9999 45.0979C54.5856 45.0979 55.9913 45.0979 58.9197 44.6294C61.8481 44.1608 64.8936 43.3409 66.4164 42.2867C66.4164 38.304 66.4164 28.1131 66.4164 27.7617C66.7678 27.7617 68.8763 27.7617 68.8763 27.7617C69.2277 27.7617 69.6962 27.8789 69.6962 28.4645V52.009C69.6962 52.2433 69.6962 52.7118 69.2277 53.0632C68.7591 53.4146 67.8221 53.8832 66.885 53.8832C66.6507 53.8832 66.5336 53.8832 66.4164 53.7661C66.2993 53.6489 66.2993 53.6489 66.2993 53.5318V44.6294C62.5509 46.5036 57.6312 47.6749 53.18 47.7921C50.7201 47.9092 50.0173 46.855 50.0173 45.4494C50.0173 44.0437 50.0173 37.0155 50.0173 36.6641C53.8828 36.6641 58.5683 36.6641 58.5683 36.6641H58.8025V31.7444H51.1887C50.3687 31.7444 49.9001 31.393 49.9001 30.1045C49.9001 30.1045 49.9001 29.753 49.9001 29.5188C50.2516 29.5188 60.911 29.5188 61.3795 29.5188C61.8481 29.5188 62.0824 29.6359 62.0824 30.2216V37.4841C62.0824 38.5383 61.4967 39.0068 60.4424 39.0068Z" fill="white" fill-opacity="0.8"/>
<path d="M27.9956 33.8527C27.9956 37.7182 31.0412 40.178 35.8438 40.178C40.6464 40.178 43.6919 37.7182 43.6919 33.8527C43.6919 29.9871 40.6464 27.5273 35.8438 27.5273C31.0412 27.4101 27.9956 29.9871 27.9956 33.8527ZM31.6268 33.8527C31.6268 31.2756 33.3839 29.6357 35.8438 29.6357C38.4208 29.6357 40.0607 31.2756 40.0607 33.8527C40.0607 36.4297 38.3036 38.0696 35.8438 38.0696C33.2668 38.0696 31.6268 36.3125 31.6268 33.8527Z" fill="white" fill-opacity="0.8"/>
<path d="M23.6616 42.9895C23.6616 44.3951 24.2473 44.6294 25.1844 44.6294H34.3211V53.7661C34.3211 53.8832 34.3211 53.8832 34.4382 54.0003C34.5553 54.1175 34.6725 54.1175 34.9067 54.1175C35.8438 54.1175 36.7809 53.6489 37.2495 53.2975C37.718 52.9461 37.718 52.4776 37.718 52.2433V44.7465C37.718 44.7465 47.5575 44.7465 47.9089 44.7465C47.9089 44.5123 47.9089 43.1066 47.9089 43.1066C47.9089 42.6381 47.4404 42.4038 47.2061 42.4038C47.2061 42.4038 25.5358 42.4038 23.7788 42.4038C23.6616 42.6381 23.6616 42.9895 23.6616 42.9895Z" fill="white" fill-opacity="0.8"/>
<path fill-rule="evenodd" clip-rule="evenodd" d="M100.503 13.5879C99.4491 5.7397 92.4209 0 82.6986 0C72.1563 0 64.4252 5.7397 64.7767 14.0564C65.0109 19.679 69.8135 23.4273 76.9589 24.013C78.3645 24.1302 79.4187 24.3644 79.8873 25.7701C80.3558 27.1757 79.3016 29.167 77.6617 31.0412C76.6075 32.2126 77.1931 33.5011 78.7159 33.5011C90.8981 32.9154 102.143 26.1215 100.503 13.5879ZM89.7267 23.6616C86.9155 24.5987 85.0413 22.6074 83.9871 20.9675C82.5814 18.859 80.8244 18.039 77.896 18.039C75.4361 18.039 73.3276 17.2191 72.2734 15.9306C71.6877 15.2278 71.4534 14.4078 71.4534 13.5879C71.4534 13.2364 71.5706 12.7679 71.6877 12.4165C72.7419 8.90239 77.1931 6.32538 81.9957 6.32538C89.1411 6.32538 93.5923 10.1909 94.1779 14.9935C94.6465 18.7419 93.1237 22.4902 89.7267 23.6616Z" fill="white" fill-opacity="0.8"/>
<path d="M98.512 53.7657H96.2864V49.5488H87.0326V47.7917H98.6291V51.7744C98.6291 52.5944 98.6291 53.2972 98.512 53.7657ZM87.6183 42.7549C87.2669 42.7549 87.0326 42.5206 87.0326 42.1692V38.4208C87.0326 37.6009 86.9155 36.898 86.6812 36.5466H98.9805V38.3037H89.2582V40.9978H99.0977V42.7549H94.0608V44.6291H100.972V46.3861H84.9241V44.6291H91.8352V42.7549H87.6183Z" fill="white" fill-opacity="0.8"/>
<path d="M116.785 53.7657H114.56V42.9891H110.46V41.232H114.56V37.7179C114.56 36.898 114.443 36.1952 114.208 35.8438H116.785V51.6572C116.902 52.5943 116.902 53.2971 116.785 53.7657ZM111.28 48.6116C109.64 48.026 107.883 46.6203 106.829 44.9804C105.892 46.7375 104.017 48.1431 102.378 48.6116L101.323 47.3231C103.9 46.5032 105.657 43.4576 105.657 40.7635V38.655C105.657 37.8351 105.54 37.1323 105.423 36.898H108V40.8806C108 43.5748 109.757 46.5032 112.334 47.4403L111.28 48.6116Z" fill="white" fill-opacity="0.8"/>
<path d="M130.607 41.5836H123.345V38.4209H130.607V41.5836ZM132.95 43.3407V36.781H120.651C120.768 37.1324 121.002 37.7181 121.002 38.6552V42.755C121.002 43.1064 121.236 43.3407 121.588 43.3407H132.95ZM135.059 46.7376V44.9806H118.894V46.7376H126.039V49.9003H128.265C128.382 49.4318 128.382 48.729 128.382 48.0261V46.7376H135.059ZM133.067 53.6487V51.8916H123.696V48.2604H121.119C121.236 48.6118 121.471 49.1975 121.471 50.1346V53.063C121.471 53.4144 121.705 53.6487 122.056 53.6487H133.067Z" fill="white" fill-opacity="0.8"/>
<path d="M143.375 42.4035C143.375 43.4577 142.673 44.3948 141.735 44.3948C140.798 44.3948 140.096 43.5749 140.096 42.4035C140.096 41.3493 140.798 40.4122 141.735 40.4122C142.673 40.5293 143.375 41.3493 143.375 42.4035ZM148.061 47.5575C147.358 47.6747 146.304 47.9089 145.25 47.9089H142.907V45.9176C144.43 45.4491 145.601 44.0434 145.601 42.4035C145.601 41.5836 145.367 40.8807 144.898 40.295H146.889V38.538H142.907C142.907 37.718 142.907 36.0781 142.907 36.0781H140.33C140.447 36.4295 140.564 36.8981 140.564 37.3666V38.6551H136.581V40.4122H138.573C138.104 40.9979 137.87 41.7007 137.87 42.5206C137.87 44.1606 139.041 45.5662 140.564 46.0347V48.0261H135.996V49.7831H145.015C146.187 49.7831 147.241 49.5488 148.061 49.3146V53.8829H150.286C150.404 53.4143 150.404 52.7115 150.404 51.8916V43.8091H152.746V42.0521H150.404V36.0781H147.827C147.944 36.4295 148.178 37.0152 148.178 37.9523C148.061 37.8352 148.061 47.5575 148.061 47.5575Z" fill="white" fill-opacity="0.8"/>
<path d="M163.289 39.5922C163.289 40.9979 162.234 41.9349 161.063 41.9349C159.892 41.9349 158.837 40.8807 158.837 39.5922C158.837 38.3037 159.892 37.2495 161.063 37.2495C162.117 37.1323 163.289 38.3037 163.289 39.5922ZM165.514 39.5922C165.514 37.2495 163.406 35.4924 160.946 35.4924C158.369 35.4924 156.378 37.3666 156.378 39.5922C156.378 41.9349 158.486 43.692 160.946 43.692C163.523 43.5749 165.514 41.8178 165.514 39.5922ZM169.028 46.6204V44.8634H152.863V46.6204H160.009V50.1345H162.234C162.351 49.666 162.351 48.9632 162.351 48.2603V46.6204H169.028ZM167.037 53.6486V51.8916H157.666V48.2603H155.089C155.206 48.6117 155.44 49.1974 155.44 50.1345V53.0629C155.44 53.4143 155.675 53.6486 156.026 53.6486H167.037Z" fill="white" fill-opacity="0.8"/>
<path d="M180.039 50.2516C180.039 51.423 178.985 52.3601 177.931 52.3601C176.876 52.3601 175.822 51.423 175.822 50.2516C175.822 49.0803 176.876 48.1432 177.931 48.1432C179.102 48.1432 180.039 49.0803 180.039 50.2516ZM182.382 50.2516C182.382 48.1432 180.39 46.3861 177.931 46.3861C175.471 46.3861 173.479 48.1432 173.479 50.2516C173.479 52.3601 175.471 54 177.931 54C180.39 54 182.382 52.3601 182.382 50.2516ZM176.759 42.1692V43.9262H169.848V45.6833H186.013V43.9262H179.102V42.1692H184.139V40.4121H174.299V38.3037H184.022V36.5466H171.722C171.84 36.898 172.074 37.4837 172.074 38.4208V41.5835C172.074 41.9349 172.308 42.1692 172.659 42.1692H176.759Z" fill="white" fill-opacity="0.8"/>
<path d="M198.664 40.4121V42.4035H191.401V40.4121H198.664ZM196.204 44.1605H201.007V36.5466H198.43C198.664 36.898 198.781 37.6009 198.781 38.4208V38.8894H191.519V36.7809H188.941C189.176 37.1323 189.293 37.718 189.293 38.6551V43.692C189.293 44.0434 189.527 44.2776 189.879 44.2776H194.096V46.1518H187.184V47.9089H203.349V46.1518H196.438V44.1605H196.204ZM201.007 53.6486V51.8915H191.636V49.0803H189.059C189.176 49.4317 189.41 50.0173 189.41 50.9544V53.0629C189.41 53.4143 189.644 53.6486 189.996 53.6486H201.007Z" fill="white" fill-opacity="0.8"/>
<path d="M215.649 40.6465V42.7549H208.386V40.6465H215.649ZM220.1 48.1432V46.3862H203.935V48.1432H210.846V53.7658H213.072C213.189 53.2972 213.189 52.5944 213.189 51.8916V48.1432H220.1ZM208.269 36.6638H205.692C205.926 37.0152 206.043 37.6009 206.043 38.538V43.9263C206.043 44.2777 206.278 44.512 206.629 44.512H217.991V36.6638H215.414C215.649 37.0152 215.766 37.7181 215.766 38.538V39.1237H208.269V36.6638Z" fill="white" fill-opacity="0.8"/>
</svg>
