<svg width="150" height="40" viewBox="0 0 150 40" fill="none" xmlns="http://www.w3.org/2000/svg">
<path d="M3.83305 19.9319C3.83305 20.1874 3.83305 21.7206 3.83305 21.7206C3.83305 21.7206 0.170358 21.7206 0 21.7206C0 21.891 0 22.2317 0 22.2317C0 23.2538 0.425894 23.339 1.10733 23.339H2.55537L2.21465 23.5946C1.1925 24.3612 0.596252 25.5537 0.596252 27.0017C0.596252 29.5571 2.47019 31.3458 5.19591 31.3458C7.92164 31.3458 9.79557 29.6423 9.79557 27.0017C9.79557 25.5537 9.19932 24.3612 8.17717 23.5946L7.83646 23.339C7.83646 23.339 10.1363 23.339 10.3918 23.339C10.3918 23.1687 10.3918 22.1465 10.3918 22.1465C10.3918 21.8058 10.0511 21.6354 9.88075 21.6354H6.4736V21.3799C6.4736 21.3799 6.4736 21.0392 6.4736 20.3578C6.4736 20.017 6.13288 19.8467 5.96252 19.8467C5.96252 19.9319 4.08859 19.9319 3.83305 19.9319ZM2.8109 27.0017C2.8109 25.2981 3.74787 24.276 5.19591 24.276C6.64395 24.276 7.58092 25.3833 7.58092 27.0017C7.58092 28.7053 6.64395 29.7274 5.19591 29.7274C3.74787 29.7274 2.8109 28.6201 2.8109 27.0017ZM13.1175 20.2726C13.1175 20.5281 13.1175 33.5605 13.1175 33.5605C13.1175 33.6457 13.1175 33.6457 13.2027 33.7308C13.2879 33.816 13.3731 33.816 13.5434 33.816C14.2249 33.816 14.9063 33.4753 15.247 33.2198C15.5877 32.9642 15.5877 32.6235 15.5877 32.4532V26.661C15.5877 26.661 17.4617 26.661 18.0579 26.661C18.0579 26.4906 18.0579 25.4685 18.0579 25.4685C18.0579 25.1278 17.7172 24.9574 17.5469 24.9574H15.5877V20.7836C15.5877 20.3578 15.247 20.2726 14.9915 20.2726C14.9063 20.2726 13.2879 20.2726 13.1175 20.2726ZM3.49233 33.1346C3.49233 33.3901 3.49233 37.138 3.49233 37.138C3.49233 38.2453 4.34412 38.8416 5.36627 38.8416C5.36627 38.8416 15.7581 38.8416 16.0136 38.8416C16.0136 38.6712 16.0136 37.6491 16.0136 37.6491C16.0136 37.3084 15.6729 37.138 15.5026 37.138H6.30324C6.0477 37.138 5.87734 36.9676 5.87734 36.7121V33.5605C5.87734 33.2198 5.53663 33.0494 5.36627 33.0494C5.36627 33.1346 3.66269 33.1346 3.49233 33.1346Z" fill="#323333"/>
<path fill-rule="evenodd" clip-rule="evenodd" d="M43.9523 28.3646H38.7564C38.7564 28.3646 38.7564 32.0272 38.7564 32.368C38.7564 32.7087 38.8416 32.7939 39.2675 32.7939C39.6934 32.7939 40.7155 32.7939 42.845 32.4531C44.9744 32.1124 47.1891 31.5162 48.2964 30.7496C48.2964 27.8535 48.2964 20.4429 48.2964 20.1874C48.552 20.1874 50.0852 20.1874 50.0852 20.1874C50.3407 20.1874 50.6814 20.2726 50.6814 20.6985V37.8194C50.6814 37.9898 50.6814 38.3305 50.3407 38.586C50 38.8416 49.3186 39.1823 48.6371 39.1823C48.4668 39.1823 48.3816 39.1823 48.2964 39.0971C48.2112 39.0119 48.2112 39.0119 48.2112 38.9267V32.4531C45.4855 33.816 41.908 34.6678 38.6712 34.753C36.8825 34.8381 36.3714 34.0715 36.3714 33.0494C36.3714 32.0272 36.3714 26.9165 36.3714 26.661C39.1823 26.661 42.5894 26.661 42.5894 26.661H42.7598V23.0835H37.2232C36.6269 23.0835 36.2862 22.8279 36.2862 21.891C36.2862 21.891 36.2862 21.6354 36.2862 21.4651C36.5417 21.4651 44.293 21.4651 44.6337 21.4651C44.9744 21.4651 45.1448 21.5502 45.1448 21.9761V27.2572C45.1448 28.0238 44.7189 28.3646 43.9523 28.3646Z" fill="#323333"/>
<path d="M20.3578 24.6167C20.3578 27.4276 22.5724 29.2164 26.0647 29.2164C29.5571 29.2164 31.7717 27.4276 31.7717 24.6167C31.7717 21.8058 29.5571 20.017 26.0647 20.017C22.5724 19.9319 20.3578 21.8058 20.3578 24.6167ZM22.9983 24.6167C22.9983 22.7428 24.276 21.5503 26.0647 21.5503C27.9387 21.5503 29.1312 22.7428 29.1312 24.6167C29.1312 26.4906 27.8535 27.6831 26.0647 27.6831C24.1908 27.6831 22.9983 26.4055 22.9983 24.6167Z" fill="#323333"/>
<path d="M17.2061 31.2606C17.2061 32.2828 17.632 32.4531 18.3135 32.4531H24.9574V39.0971C24.9574 39.1823 24.9574 39.1823 25.0426 39.2674C25.1278 39.3526 25.213 39.3526 25.3833 39.3526C26.0648 39.3526 26.7462 39.0119 27.0869 38.7564C27.4276 38.5008 27.4276 38.1601 27.4276 37.9898V32.5383C27.4276 32.5383 34.5826 32.5383 34.8382 32.5383C34.8382 32.368 34.8382 31.3458 34.8382 31.3458C34.8382 31.0051 34.4975 30.8347 34.3271 30.8347C34.3271 30.8347 18.569 30.8347 17.2913 30.8347C17.2061 31.0051 17.2061 31.2606 17.2061 31.2606Z" fill="#323333"/>
<path fill-rule="evenodd" clip-rule="evenodd" d="M73.0835 9.88075C72.3169 4.17377 67.2062 0 60.1363 0C52.4702 0 46.8484 4.17377 47.104 10.2215C47.2743 14.3101 50.7666 17.0358 55.9626 17.4617C56.9847 17.5469 57.7513 17.7172 58.092 18.7394C58.4327 19.7615 57.6661 21.2095 56.4736 22.5724C55.707 23.4242 56.1329 24.3612 57.2402 24.3612C66.0988 23.9353 74.276 18.9949 73.0835 9.88075ZM65.2471 17.2061C63.2028 17.8876 61.8399 16.4395 61.0733 15.247C60.0511 13.7138 58.7735 13.1175 56.644 13.1175C54.8552 13.1175 53.322 12.5213 52.5554 11.5843C52.1295 11.0733 51.9592 10.477 51.9592 9.88075C51.9592 9.62521 52.0443 9.2845 52.1295 9.02896C52.8961 6.4736 56.1329 4.59966 59.6253 4.59966C64.8212 4.59966 68.058 7.41056 68.4839 10.9029C68.8246 13.6286 67.7172 16.3543 65.2471 17.2061Z" fill="#EA5504"/>
<path d="M67.4616 31.2606H64.3099C64.2248 31.2606 64.0544 31.1754 63.9692 31.0903C63.8841 31.0051 63.7989 30.9199 63.7989 30.8347V28.1942C63.7989 27.5979 63.7137 27.172 63.5433 26.9165H72.6575V28.109H65.5025V30.0681H72.7427V31.2606H69.08V32.5383H74.1907V33.7308H62.3508V32.5383H67.4616V31.2606ZM72.5723 37.5639C72.5723 38.1601 72.5723 38.586 72.4871 39.0119H70.8687V36.0306H64.0544V34.8381H72.6575V37.5639H72.5723Z" fill="#323333"/>
<path d="M82.7938 34.4975L81.942 35.4344C81.3457 35.2641 80.6643 34.9234 80.068 34.4123C79.4718 33.9864 78.9607 33.3901 78.62 32.7939C78.2793 33.3901 77.7682 33.9012 77.172 34.4123C76.5757 34.8382 75.9794 35.1789 75.298 35.4344L74.4462 34.4975C75.3832 34.2419 76.1498 33.5605 76.7461 32.7087C77.3423 31.8569 77.683 30.9199 77.683 29.8978V28.3646C77.683 27.8535 77.5978 27.4276 77.5127 27.0869H79.4718V29.8126C79.4718 30.7496 79.8125 31.6866 80.4088 32.6235C81.0902 33.5605 81.8568 34.1567 82.7938 34.4975ZM86.1157 37.5639C86.1157 38.1602 86.1157 38.586 86.0306 39.0119H84.4122V31.431H81.3457V30.2385H84.4122V27.7683C84.4122 27.1721 84.327 26.7462 84.1566 26.4906H86.1157V37.5639Z" fill="#323333"/>
<path d="M94.4632 31.431V32.2828H99.574V33.4753H87.5637V32.2828H92.6745V31.431C91.993 31.2606 91.3968 30.9199 90.9709 30.494C90.545 29.983 90.2894 29.4719 90.2894 28.7905C90.2894 28.0238 90.6302 27.3424 91.2264 26.8313C91.9078 26.3203 92.6745 25.9796 93.5262 25.9796C94.378 25.9796 95.2298 26.2351 95.8261 26.8313C96.5075 27.3424 96.763 28.0238 96.763 28.7905C96.763 29.3867 96.5075 29.983 96.0816 30.494C95.6557 31.0051 95.1446 31.2606 94.4632 31.431ZM97.7852 39.0119H89.8636C89.7784 39.0119 89.6932 39.0119 89.608 38.9267C89.5228 38.8416 89.4377 38.7564 89.4377 38.586V37.138C89.4377 36.6269 89.3525 36.201 89.2673 36.0307H95.9964V35.3492H89.3525V34.1567H97.7V37.138H91.1412V37.8194H97.7852V39.0119ZM95.1446 28.7905C95.1446 28.3646 94.9743 28.0238 94.6336 27.6831C94.2929 27.3424 93.9521 27.2572 93.5262 27.2572C93.1004 27.2572 92.7596 27.4276 92.4189 27.6831C92.0782 28.0238 91.9078 28.3646 91.9078 28.7905C91.9078 29.2164 92.0782 29.5571 92.4189 29.8978C92.7596 30.2385 93.1004 30.3237 93.5262 30.3237C93.9521 30.3237 94.2929 30.1533 94.6336 29.8978C94.9743 29.6422 95.1446 29.3015 95.1446 28.7905Z" fill="#323333"/>
<path d="M109.455 31.6866V27.7683C109.455 27.1721 109.37 26.7462 109.199 26.4906H111.158V32.2828C111.158 32.8791 111.158 33.305 111.073 33.7309H109.455V32.7939C108.773 33.0494 108.007 33.1346 107.24 33.1346H101.448C101.363 33.1346 101.278 33.1346 101.192 33.0494C101.107 32.9642 101.022 32.8791 101.022 32.7087V30.6644C101.022 30.1533 100.937 29.7274 100.852 29.5571H105.707V28.3646H100.937V27.1721H107.41V30.6644H102.726V31.9421H107.325C108.092 31.8569 108.859 31.7717 109.455 31.6866ZM111.158 39.0119H103.322C103.237 39.0119 103.066 38.9268 102.981 38.8416C102.896 38.7564 102.811 38.6712 102.811 38.5009V35.6048C102.811 35.0085 102.726 34.5826 102.555 34.3271H111.073V39.0119H111.158ZM109.455 37.8194V35.6048H104.6V37.8194H109.455Z" fill="#323333"/>
<path d="M122.232 33.816V27.8535C122.232 27.2572 122.146 26.8313 121.976 26.5758H123.935V37.649C123.935 38.2453 123.935 38.6712 123.85 39.0971H122.232V34.9233C121.55 35.1789 120.784 35.264 120.017 35.264H113.203V34.0715H114.48V28.6201H113.203V27.4276H120.869V28.6201H119.591V34.0715H120.187C120.869 33.9864 121.55 33.9012 122.232 33.816ZM117.887 28.5349H116.184V33.9864H117.887V28.5349Z" fill="#323333"/>
<path d="M132.794 31.0051C132.794 31.9421 132.453 32.7939 131.686 33.4753C131.005 34.1567 130.153 34.4975 129.131 34.4975C128.109 34.4975 127.257 34.1567 126.576 33.4753C125.894 32.7939 125.554 31.9421 125.554 31.0051C125.554 30.0682 125.894 29.2164 126.576 28.5349C127.257 27.8535 128.109 27.5128 129.131 27.5128C130.153 27.5128 131.005 27.8535 131.686 28.5349C132.453 29.2164 132.794 29.983 132.794 31.0051ZM131.09 31.0051C131.09 30.3237 130.92 29.8126 130.579 29.3016C130.238 28.8757 129.727 28.6201 129.216 28.6201C128.705 28.6201 128.194 28.8757 127.853 29.3016C127.513 29.7274 127.342 30.3237 127.342 31.0051C127.342 31.6866 127.513 32.1976 127.853 32.6235C128.194 33.0494 128.705 33.305 129.216 33.305C129.727 33.305 130.238 33.0494 130.579 32.6235C130.92 32.1976 131.09 31.6866 131.09 31.0051ZM134.327 39.0119V27.7683C134.327 27.1721 134.242 26.7462 134.071 26.4906H136.031V30.4089H137.819V31.6014H136.031V37.5639C136.031 38.1602 136.031 38.586 135.945 39.0119H134.327Z" fill="#323333"/>
<path d="M150 37.5639H137.99V36.3714H150V37.5639ZM148.552 33.7308H140.034C139.949 33.7308 139.778 33.6456 139.693 33.5605C139.608 33.4753 139.523 33.3901 139.523 33.3049V28.8756C139.523 28.2794 139.438 27.8535 139.267 27.5979H148.382V28.7904H141.227V32.5383H148.467V33.7308H148.552Z" fill="#323333"/>
</svg>
